STARTFONT 2.1
FONT -FontForge-Good Times Rg-Book-R-Normal--25-240-75-75-P-186-ISO10646-1
SIZE 24 75 75
FONTBOUNDINGBOX 50 29 -7 -5
COMMENT "Generated by fontforge, http://fontforge.sourceforge.net"
COMMENT "(c) 1998-2012 Typodermic Fonts Inc. See attached license agreement. If agreement is missing visit typodermicfonts.com for more info. Languages by Chikako Larabie"
STARTPROPERTIES 39
FOUNDRY "FontForge"
FAMILY_NAME "Good Times Rg"
WEIGHT_NAME "Book"
SLANT "R"
SETWIDTH_NAME "Normal"
ADD_STYLE_NAME ""
PIXEL_SIZE 25
POINT_SIZE 240
RESOLUTION_X 75
RESOLUTION_Y 75
SPACING "P"
AVERAGE_WIDTH 186
CHARSET_REGISTRY "ISO10646"
CHARSET_ENCODING "1"
FONTNAME_REGISTRY ""
CHARSET_COLLECTIONS "ISO8859-2 ISO8859-9 ISO8859-4 ISO10646-1"
FONT_NAME "GoodTimesRg-Regular"
FACE_NAME "GoodTimesRg-Regular"
COPYRIGHT "(c) 1998-2012 Typodermic Fonts Inc. See attached license agreement. If agreement is missing visit typodermicfonts.com for more info. Languages by Chikako Larabie"
FONT_VERSION "4.001"
FONT_ASCENT 20
FONT_DESCENT 5
UNDERLINE_POSITION -4
UNDERLINE_THICKNESS 1
X_HEIGHT 17
CAP_HEIGHT 17
RAW_ASCENT 799
RAW_DESCENT 201
NORM_SPACE 7
RELATIVE_WEIGHT 40
RELATIVE_SETWIDTH 50
SUPERSCRIPT_X 0
SUPERSCRIPT_Y 7
SUPERSCRIPT_SIZE 7
SUBSCRIPT_X 0
SUBSCRIPT_Y 0
SUBSCRIPT_SIZE 7
AVG_LOWERCASE_WIDTH 213
AVG_UPPERCASE_WIDTH 212
ENDPROPERTIES
CHARS 372
STARTCHAR space
ENCODING 32
SWIDTH 294 0
DWIDTH 7 0
BBX 1 1 0 0
BITMAP
00
ENDCHAR
STARTCHAR exclam
ENCODING 33
SWIDTH 298 0
DWIDTH 7 0
BBX 3 18 2 0
BITMAP
E0
E0
E0
E0
E0
E0
E0
E0
E0
E0
E0
E0
00
00
00
E0
E0
60
ENDCHAR
STARTCHAR quotedbl
ENCODING 34
SWIDTH 452 0
DWIDTH 11 0
BBX 8 6 2 12
BITMAP
EF
E6
E6
E6
E6
C6
ENDCHAR
STARTCHAR numbersign
ENCODING 35
SWIDTH 697 0
DWIDTH 17 0
BBX 15 18 1 0
BITMAP
038E
030C
030C
071C
0618
3FFE
3FFE
0C30
0C30
1C70
1860
FFFC
FFFC
30C0
30C0
30C0
71C0
6180
ENDCHAR
STARTCHAR dollar
ENCODING 36
SWIDTH 744 0
DWIDTH 19 0
BBX 16 18 1 0
BITMAP
0080
0080
1FFE
7FFE
7FFE
F080
E080
7080
7FFC
1FFE
0087
0083
0087
7FFF
7FFE
7FFC
0080
0080
ENDCHAR
STARTCHAR percent
ENCODING 37
SWIDTH 965 0
DWIDTH 24 0
BBX 22 21 1 -2
BITMAP
1E0070
7F0060
E180C0
C08180
C08300
C08300
618600
7F0C00
1E1800
003800
0031F0
0063F8
00C60C
01840C
03840C
03040C
06060C
0C03F8
1C01F0
180000
700000
ENDCHAR
STARTCHAR ampersand
ENCODING 38
SWIDTH 759 0
DWIDTH 19 0
BBX 17 18 1 0
BITMAP
1FC000
3FC000
7FC000
780000
700000
700000
780000
3FFF00
3FFF00
7FFF00
F01C00
F01C00
E01C00
F01C00
781C00
7FFF80
3FFF80
1FFF80
ENDCHAR
STARTCHAR quotesingle
ENCODING 39
SWIDTH 255 0
DWIDTH 6 0
BBX 3 6 2 12
BITMAP
E0
E0
E0
C0
C0
C0
ENDCHAR
STARTCHAR parenleft
ENCODING 40
SWIDTH 356 0
DWIDTH 9 0
BBX 5 23 2 -2
BITMAP
18
38
30
30
70
60
60
60
E0
C0
C0
C0
C0
C0
60
60
60
60
70
30
30
38
18
ENDCHAR
STARTCHAR parenright
ENCODING 41
SWIDTH 355 0
DWIDTH 9 0
BBX 5 23 2 -2
BITMAP
C0
C0
60
60
70
30
30
30
30
30
38
38
38
30
30
30
30
30
70
60
60
C0
C0
ENDCHAR
STARTCHAR asterisk
ENCODING 42
SWIDTH 469 0
DWIDTH 12 0
BBX 8 8 2 10
BITMAP
18
18
99
FF
38
3C
64
46
ENDCHAR
STARTCHAR plus
ENCODING 43
SWIDTH 690 0
DWIDTH 17 0
BBX 14 14 2 2
BITMAP
0300
0300
0300
0300
0300
0300
FFFC
FFFC
0300
0300
0300
0300
0300
0300
ENDCHAR
STARTCHAR comma
ENCODING 44
SWIDTH 259 0
DWIDTH 6 0
BBX 3 6 2 -3
BITMAP
E0
E0
C0
C0
C0
C0
ENDCHAR
STARTCHAR hyphen
ENCODING 45
SWIDTH 296 0
DWIDTH 7 0
BBX 6 2 1 8
BITMAP
FC
FC
ENDCHAR
STARTCHAR period
ENCODING 46
SWIDTH 262 0
DWIDTH 7 0
BBX 3 3 2 0
BITMAP
E0
E0
E0
ENDCHAR
STARTCHAR slash
ENCODING 47
SWIDTH 444 0
DWIDTH 11 0
BBX 11 18 0 0
BITMAP
0060
00C0
00C0
0180
0180
0300
0300
0600
0600
0C00
0C00
1800
1800
3800
3000
7000
6000
E000
ENDCHAR
STARTCHAR zero
ENCODING 48
SWIDTH 838 0
DWIDTH 21 0
BBX 19 18 1 0
BITMAP
03F800
0FFE00
1FFF00
3E0F80
7803C0
7001C0
F001E0
E000E0
E000E0
E000E0
E001E0
F001E0
7001C0
7803C0
3E1F80
1FFF00
0FFE00
03F800
ENDCHAR
STARTCHAR one
ENCODING 49
SWIDTH 385 0
DWIDTH 10 0
BBX 7 18 1 0
BITMAP
F0
FC
FC
1E
0E
0E
0E
0E
0E
0E
0E
0E
0E
0E
0E
0E
0E
0E
ENDCHAR
STARTCHAR two
ENCODING 50
SWIDTH 825 0
DWIDTH 21 0
BBX 17 18 2 0
BITMAP
FFFC00
FFFF00
FFFF80
000780
000380
000380
000780
3FFF80
7FFF00
FFFC00
E00000
E00000
E00000
E00000
E00000
FFFF80
FFFF80
FFFF80
ENDCHAR
STARTCHAR three
ENCODING 51
SWIDTH 827 0
DWIDTH 21 0
BBX 18 18 1 0
BITMAP
FFFE00
FFFF80
FFFFC0
0003C0
0001C0
0001C0
0003C0
0FFF80
0FFF80
0FFFC0
0003C0
0001C0
0001C0
0001C0
0003C0
FFFFC0
FFFF80
FFFE00
ENDCHAR
STARTCHAR four
ENCODING 52
SWIDTH 845 0
DWIDTH 21 0
BBX 20 18 1 0
BITMAP
E00380
E00380
E00380
E00380
E00380
E00380
E00380
E00380
F00380
F00380
7FFFF0
7FFFF0
1FFFF0
000380
000380
000380
000380
000380
ENDCHAR
STARTCHAR five
ENCODING 53
SWIDTH 885 0
DWIDTH 22 0
BBX 19 18 2 0
BITMAP
FFFFC0
FFFFC0
FFFFC0
E00000
E00000
E00000
E00000
FFFF00
FFFFC0
FFFFC0
0001E0
0000E0
0000E0
0000E0
0001E0
FFFFC0
FFFF80
FFFF00
ENDCHAR
STARTCHAR six
ENCODING 54
SWIDTH 872 0
DWIDTH 22 0
BBX 19 18 1 0
BITMAP
07FFE0
1FFFE0
3FFFE0
7C0000
700000
F00000
E00000
FFFF80
FFFFC0
FFFFE0
E001E0
F000E0
F000E0
7800E0
7C01E0
3FFFE0
1FFFC0
07FF80
ENDCHAR
STARTCHAR seven
ENCODING 55
SWIDTH 756 0
DWIDTH 19 0
BBX 17 18 1 0
BITMAP
FFFF80
FFFF80
FFFF80
000F00
000F00
001E00
003C00
007800
00F000
01E000
01E000
03C000
078000
0F0000
1E0000
3C0000
7C0000
F80000
ENDCHAR
STARTCHAR eight
ENCODING 56
SWIDTH 898 0
DWIDTH 22 0
BBX 20 18 1 0
BITMAP
1FFF80
3FFFE0
7FFFE0
7801F0
700070
700070
7800E0
3FFFC0
3FFFC0
7FFFE0
7000F0
F00070
E00070
F00070
7801F0
7FFFE0
3FFFE0
0FFF80
ENDCHAR
STARTCHAR nine
ENCODING 57
SWIDTH 861 0
DWIDTH 22 0
BBX 19 18 1 0
BITMAP
1FFC00
3FFF00
7FFF80
F007C0
E001E0
E000E0
E000E0
F000E0
FFFFE0
7FFFE0
3FFFE0
0000E0
0000E0
0001E0
0007C0
3FFFC0
3FFF80
3FFE00
ENDCHAR
STARTCHAR colon
ENCODING 58
SWIDTH 262 0
DWIDTH 7 0
BBX 3 11 2 0
BITMAP
E0
E0
E0
00
00
00
00
00
E0
E0
E0
ENDCHAR
STARTCHAR semicolon
ENCODING 59
SWIDTH 262 0
DWIDTH 7 0
BBX 3 14 2 -3
BITMAP
E0
E0
E0
00
00
00
00
00
E0
E0
C0
C0
C0
C0
ENDCHAR
STARTCHAR less
ENCODING 60
SWIDTH 690 0
DWIDTH 17 0
BBX 14 14 2 2
BITMAP
0004
003C
00F8
03E0
1F00
7C00
E000
F000
3E00
0F80
03F0
007C
001C
0004
ENDCHAR
STARTCHAR equal
ENCODING 61
SWIDTH 690 0
DWIDTH 17 0
BBX 14 9 2 5
BITMAP
FFFC
FFFC
0000
0000
0000
0000
0000
FFFC
FFFC
ENDCHAR
STARTCHAR greater
ENCODING 62
SWIDTH 690 0
DWIDTH 17 0
BBX 14 14 2 2
BITMAP
8000
E000
F800
3F00
07C0
00F0
003C
0078
01F0
0F80
3E00
F000
C000
8000
ENDCHAR
STARTCHAR question
ENCODING 63
SWIDTH 776 0
DWIDTH 19 0
BBX 18 18 1 0
BITMAP
FFFE00
FFFF00
FFFF80
000780
0003C0
0003C0
000380
0FFF80
3FFF00
3FFE00
380000
380000
000000
000000
000000
380000
380000
380000
ENDCHAR
STARTCHAR at
ENCODING 64
SWIDTH 833 0
DWIDTH 21 0
BBX 18 18 1 0
BITMAP
03FFC0
0FFFC0
1E00C0
3800C0
7000C0
61FCC0
E3FCC0
E70CC0
E60CC0
C60CC0
E70CC0
E3FFC0
61FFC0
700000
380000
1E0000
0FFFC0
03FFC0
ENDCHAR
STARTCHAR A
ENCODING 65
SWIDTH 989 0
DWIDTH 25 0
BBX 24 18 0 0
BITMAP
001800
003C00
003E00
007E00
007F00
00F780
01E380
01C3C0
03C1E0
0381E0
0780F0
0F3FF0
0E3FF8
1E7FFC
3C003C
38001E
78000E
F0000F
ENDCHAR
STARTCHAR B
ENCODING 66
SWIDTH 891 0
DWIDTH 22 0
BBX 19 18 2 0
BITMAP
FFFF00
FFFFC0
FFFFC0
E003E0
E001E0
E001E0
E001C0
E7FF80
E7FF80
E7FFC0
E001E0
E000E0
E000E0
E000E0
E003E0
FFFFC0
FFFF80
FFFF00
ENDCHAR
STARTCHAR C
ENCODING 67
SWIDTH 829 0
DWIDTH 21 0
BBX 19 18 1 0
BITMAP
03FFE0
0FFFE0
3FFFE0
3E0000
780000
700000
F00000
E00000
E00000
E00000
E00000
F00000
700000
780000
3E0000
1FFFE0
0FFFE0
03FFE0
ENDCHAR
STARTCHAR D
ENCODING 68
SWIDTH 879 0
DWIDTH 22 0
BBX 19 18 2 0
BITMAP
FFF800
FFFE00
FFFF80
E00F80
E003C0
E001C0
E001E0
E000E0
E000E0
E000E0
E000E0
E001E0
E001C0
E003C0
E00F80
FFFF00
FFFE00
FFF800
ENDCHAR
STARTCHAR E
ENCODING 69
SWIDTH 759 0
DWIDTH 19 0
BBX 16 18 2 0
BITMAP
FFFF
FFFF
FFFF
E000
E000
E000
E000
E7FE
E7FE
E7FE
E000
E000
E000
E000
E000
FFFF
FFFF
FFFF
ENDCHAR
STARTCHAR F
ENCODING 70
SWIDTH 705 0
DWIDTH 18 0
BBX 15 18 2 0
BITMAP
FFFE
FFFE
FFFE
E000
E000
E000
E000
E000
E7FC
E7FC
E7FC
E000
E000
E000
E000
E000
E000
E000
ENDCHAR
STARTCHAR G
ENCODING 71
SWIDTH 888 0
DWIDTH 22 0
BBX 20 18 1 0
BITMAP
03FFE0
0FFFE0
3FFFE0
3E0000
780000
700000
F00000
E0FFF0
E0FFF0
E0FFF0
E00070
F00070
700070
780070
3E0070
1FFFF0
0FFFF0
03FFF0
ENDCHAR
STARTCHAR H
ENCODING 72
SWIDTH 838 0
DWIDTH 21 0
BBX 17 18 2 0
BITMAP
E00380
E00380
E00380
E00380
E00380
E00380
E00380
E7FF80
E7FF80
E7FF80
E00380
E00380
E00380
E00380
E00380
E00380
E00380
E00380
ENDCHAR
STARTCHAR I
ENCODING 73
SWIDTH 267 0
DWIDTH 7 0
BBX 3 18 2 0
BITMAP
E0
E0
E0
E0
E0
E0
E0
E0
E0
E0
E0
E0
E0
E0
E0
E0
E0
E0
ENDCHAR
STARTCHAR J
ENCODING 74
SWIDTH 708 0
DWIDTH 18 0
BBX 15 18 1 0
BITMAP
000E
000E
000E
000E
000E
000E
000E
000E
000E
000E
000E
000E
000E
001E
007C
FFFC
FFF8
FFC0
ENDCHAR
STARTCHAR K
ENCODING 75
SWIDTH 875 0
DWIDTH 22 0
BBX 19 18 2 0
BITMAP
E007E0
E00F80
E01F00
E03C00
E0F800
E1F000
E3C000
EF8000
EF0000
EF0000
E78000
E3E000
E1F000
E07800
E03E00
E01F00
E00780
E003E0
ENDCHAR
STARTCHAR L
ENCODING 76
SWIDTH 707 0
DWIDTH 18 0
BBX 15 18 2 0
BITMAP
E000
E000
E000
E000
E000
E000
E000
E000
E000
E000
E000
E000
E000
E000
E000
FFFE
FFFE
FFFE
ENDCHAR
STARTCHAR M
ENCODING 77
SWIDTH 1115 0
DWIDTH 28 0
BBX 26 18 1 0
BITMAP
06001800
0F003C00
0F003C00
0F803C00
1F807E00
1F807E00
1DC0EE00
1DC0EE00
38E1C700
38E1C700
38F38700
78738780
707B8380
703F0380
703F0380
E01E01C0
E01E01C0
E00C01C0
ENDCHAR
STARTCHAR N
ENCODING 78
SWIDTH 873 0
DWIDTH 22 0
BBX 19 18 1 0
BITMAP
6000E0
F000E0
F800E0
FC00E0
FE00E0
FF00E0
F7C0E0
F3E0E0
F1F0E0
F0F8E0
F07CE0
F03EE0
F01FE0
F00FE0
F007E0
F003E0
F001E0
F000E0
ENDCHAR
STARTCHAR O
ENCODING 79
SWIDTH 968 0
DWIDTH 24 0
BBX 22 18 1 0
BITMAP
03FF80
0FFFE0
3FFFF0
3E01F8
780078
70003C
F0001C
E0001C
E0001C
E0001C
E0001C
F0003C
70003C
780078
3E01F0
1FFFF0
0FFFC0
03FF00
ENDCHAR
STARTCHAR P
ENCODING 80
SWIDTH 867 0
DWIDTH 22 0
BBX 19 18 2 0
BITMAP
FFFE00
FFFF80
FFFFC0
E003C0
E001E0
E000E0
E000E0
E000E0
E001E0
E003C0
E7FFC0
E7FF80
E7FE00
E00000
E00000
E00000
E00000
E00000
ENDCHAR
STARTCHAR Q
ENCODING 81
SWIDTH 968 0
DWIDTH 24 0
BBX 23 18 1 0
BITMAP
03FF80
0FFFE0
3FFFF0
3E01F8
780078
70003C
F0001C
E0001C
E0001C
E0001C
E0201C
F01E3C
700F3C
7807F8
3E01F0
1FFFF0
0FFFF8
03FF3E
ENDCHAR
STARTCHAR R
ENCODING 82
SWIDTH 921 0
DWIDTH 23 0
BBX 21 18 2 0
BITMAP
FFFE00
FFFF80
FFFFC0
E003E0
E000E0
E000E0
E000E0
E000E0
E000E0
E001E0
E7FFC0
E7FF80
E7FF00
E00F00
E00780
E003C0
E001E0
E000F8
ENDCHAR
STARTCHAR S
ENCODING 83
SWIDTH 880 0
DWIDTH 22 0
BBX 20 18 1 0
BITMAP
1FFFE0
3FFFE0
7FFFE0
F80000
F00000
F00000
F80000
7FFF80
3FFFE0
1FFFE0
0000F0
000070
000070
000070
0000F0
7FFFE0
7FFFC0
7FFF80
ENDCHAR
STARTCHAR T
ENCODING 84
SWIDTH 720 0
DWIDTH 18 0
BBX 17 18 0 0
BITMAP
FFFF80
FFFF80
FFFF80
01E000
01E000
01E000
01E000
01E000
01E000
01E000
01E000
01E000
01E000
01E000
01E000
01E000
01E000
01E000
ENDCHAR
STARTCHAR U
ENCODING 85
SWIDTH 889 0
DWIDTH 22 0
BBX 20 18 1 0
BITMAP
F00070
F00070
F00070
F00070
F00070
F00070
F00070
F00070
F00070
F00070
F00070
F00070
7000F0
7800E0
7E03E0
3FFFC0
1FFF80
03FE00
ENDCHAR
STARTCHAR V
ENCODING 86
SWIDTH 989 0
DWIDTH 25 0
BBX 24 18 0 0
BITMAP
F8000F
78000E
3C001E
3C001C
1E003C
0F0078
0F0070
0780F0
0380E0
03C1E0
01E3C0
01E380
00F780
007700
007E00
003E00
003C00
001800
ENDCHAR
STARTCHAR W
ENCODING 87
SWIDTH 1268 0
DWIDTH 32 0
BBX 31 18 0 0
BITMAP
F03C001E
783C001E
381E003C
3C1E0038
1E0F0078
1E0F0070
0F0780F0
0F0380E0
0783C1E0
0383C1C0
03C7E3C0
01C7E380
01EEF700
00EE7F00
00FC7E00
007C3E00
00783C00
00381C00
ENDCHAR
STARTCHAR X
ENCODING 88
SWIDTH 1000 0
DWIDTH 25 0
BBX 23 18 1 0
BITMAP
F8003E
3C0078
1E00F0
0F01E0
0783C0
03C780
01EF00
00FE00
007C00
007C00
01FE00
03CF00
078780
0F03E0
1E01F0
3C00F8
78007C
F0003E
ENDCHAR
STARTCHAR Y
ENCODING 89
SWIDTH 926 0
DWIDTH 23 0
BBX 23 18 0 0
BITMAP
F8003E
3C003C
3E0078
1F00F0
0F01E0
0783C0
03C780
01EF00
00FF00
00FE00
007C00
003800
003800
003800
003800
003800
003800
003800
ENDCHAR
STARTCHAR Z
ENCODING 90
SWIDTH 802 0
DWIDTH 20 0
BBX 18 18 1 0
BITMAP
FFFF80
FFFFC0
FFFFC0
000F80
001F00
003E00
007C00
00F800
01F000
03E000
07C000
0F8000
1F0000
3E0000
7C0000
FFFFC0
FFFFC0
FFFFC0
ENDCHAR
STARTCHAR bracketleft
ENCODING 91
SWIDTH 333 0
DWIDTH 8 0
BBX 5 23 2 -2
BITMAP
F8
F8
E0
E0
E0
E0
E0
E0
E0
E0
E0
E0
E0
E0
E0
E0
E0
E0
E0
E0
E0
F8
F8
ENDCHAR
STARTCHAR backslash
ENCODING 92
SWIDTH 445 0
DWIDTH 11 0
BBX 11 18 0 0
BITMAP
E000
6000
7000
3000
3000
1800
1800
0C00
0C00
0600
0600
0300
0300
0180
0180
01C0
00C0
00E0
ENDCHAR
STARTCHAR bracketright
ENCODING 93
SWIDTH 333 0
DWIDTH 8 0
BBX 4 23 2 -2
BITMAP
F0
F0
30
30
30
30
30
30
30
30
30
30
30
30
30
30
30
30
30
30
30
F0
F0
ENDCHAR
STARTCHAR asciicircum
ENCODING 94
SWIDTH 559 0
DWIDTH 14 0
BBX 10 11 2 7
BITMAP
0C00
0C00
1E00
1E00
3300
3300
7380
6180
6180
C0C0
C0C0
ENDCHAR
STARTCHAR underscore
ENCODING 95
SWIDTH 668 0
DWIDTH 17 0
BBX 17 1 0 -4
BITMAP
FFFF80
ENDCHAR
STARTCHAR grave
ENCODING 96
SWIDTH 362 0
DWIDTH 9 0
BBX 7 3 1 19
BITMAP
F0
FE
06
ENDCHAR
STARTCHAR a
ENCODING 97
SWIDTH 989 0
DWIDTH 25 0
BBX 24 18 0 0
BITMAP
001800
003C00
003E00
007E00
007F00
00F780
01E380
01C3C0
03C1E0
0381E0
0780F0
0F3FF0
0E3FF8
1E7FFC
3C003C
38001E
78000E
F0000F
ENDCHAR
STARTCHAR b
ENCODING 98
SWIDTH 891 0
DWIDTH 22 0
BBX 19 18 2 0
BITMAP
FFFF00
FFFFC0
FFFFC0
E003E0
E001E0
E001E0
E001C0
E7FF80
E7FF80
E7FFC0
E001E0
E000E0
E000E0
E000E0
E003E0
FFFFC0
FFFF80
FFFF00
ENDCHAR
STARTCHAR c
ENCODING 99
SWIDTH 829 0
DWIDTH 21 0
BBX 19 18 1 0
BITMAP
03FFE0
0FFFE0
3FFFE0
3E0000
780000
700000
F00000
E00000
E00000
E00000
E00000
F00000
700000
780000
3E0000
1FFFE0
0FFFE0
03FFE0
ENDCHAR
STARTCHAR d
ENCODING 100
SWIDTH 879 0
DWIDTH 22 0
BBX 19 18 2 0
BITMAP
FFF800
FFFE00
FFFF80
E00F80
E003C0
E001C0
E001E0
E000E0
E000E0
E000E0
E000E0
E001E0
E001C0
E003C0
E00F80
FFFF00
FFFE00
FFF800
ENDCHAR
STARTCHAR e
ENCODING 101
SWIDTH 759 0
DWIDTH 19 0
BBX 16 18 2 0
BITMAP
FFFF
FFFF
FFFF
E000
E000
E000
E000
E7FE
E7FE
E7FE
E000
E000
E000
E000
E000
FFFF
FFFF
FFFF
ENDCHAR
STARTCHAR f
ENCODING 102
SWIDTH 705 0
DWIDTH 18 0
BBX 15 18 2 0
BITMAP
FFFE
FFFE
FFFE
E000
E000
E000
E000
E000
E7FC
E7FC
E7FC
E000
E000
E000
E000
E000
E000
E000
ENDCHAR
STARTCHAR g
ENCODING 103
SWIDTH 888 0
DWIDTH 22 0
BBX 20 18 1 0
BITMAP
03FFE0
0FFFE0
3FFFE0
3E0000
780000
700000
F00000
E0FFF0
E0FFF0
E0FFF0
E00070
F00070
700070
780070
3E0070
1FFFF0
0FFFF0
03FFF0
ENDCHAR
STARTCHAR h
ENCODING 104
SWIDTH 838 0
DWIDTH 21 0
BBX 17 18 2 0
BITMAP
E00380
E00380
E00380
E00380
E00380
E00380
E00380
E7FF80
E7FF80
E7FF80
E00380
E00380
E00380
E00380
E00380
E00380
E00380
E00380
ENDCHAR
STARTCHAR i
ENCODING 105
SWIDTH 267 0
DWIDTH 7 0
BBX 3 18 2 0
BITMAP
E0
E0
E0
E0
E0
E0
E0
E0
E0
E0
E0
E0
E0
E0
E0
E0
E0
E0
ENDCHAR
STARTCHAR j
ENCODING 106
SWIDTH 708 0
DWIDTH 18 0
BBX 15 18 1 0
BITMAP
000E
000E
000E
000E
000E
000E
000E
000E
000E
000E
000E
000E
000E
001E
007C
FFFC
FFF8
FFC0
ENDCHAR
STARTCHAR k
ENCODING 107
SWIDTH 875 0
DWIDTH 22 0
BBX 19 18 2 0
BITMAP
E007E0
E00F80
E01F00
E03C00
E0F800
E1F000
E3C000
EF8000
EF0000
EF0000
E78000
E3E000
E1F000
E07800
E03E00
E01F00
E00780
E003E0
ENDCHAR
STARTCHAR l
ENCODING 108
SWIDTH 707 0
DWIDTH 18 0
BBX 15 18 2 0
BITMAP
E000
E000
E000
E000
E000
E000
E000
E000
E000
E000
E000
E000
E000
E000
E000
FFFE
FFFE
FFFE
ENDCHAR
STARTCHAR m
ENCODING 109
SWIDTH 1115 0
DWIDTH 28 0
BBX 26 18 1 0
BITMAP
06001800
0F003C00
0F003C00
0F803C00
1F807E00
1F807E00
1DC0EE00
1DC0EE00
38E1C700
38E1C700
38F38700
78738780
707B8380
703F0380
703F0380
E01E01C0
E01E01C0
E00C01C0
ENDCHAR
STARTCHAR n
ENCODING 110
SWIDTH 873 0
DWIDTH 22 0
BBX 19 18 1 0
BITMAP
6000E0
F000E0
F800E0
FC00E0
FE00E0
FF00E0
F7C0E0
F3E0E0
F1F0E0
F0F8E0
F07CE0
F03EE0
F01FE0
F00FE0
F007E0
F003E0
F001E0
F000E0
ENDCHAR
STARTCHAR o
ENCODING 111
SWIDTH 968 0
DWIDTH 24 0
BBX 22 18 1 0
BITMAP
03FF80
0FFFE0
3FFFF0
3E01F8
780078
70003C
F0001C
E0001C
E0001C
E0001C
E0001C
F0003C
70003C
780078
3E01F0
1FFFF0
0FFFC0
03FF00
ENDCHAR
STARTCHAR p
ENCODING 112
SWIDTH 867 0
DWIDTH 22 0
BBX 19 18 2 0
BITMAP
FFFE00
FFFF80
FFFFC0
E003C0
E001E0
E000E0
E000E0
E000E0
E001E0
E003C0
E7FFC0
E7FF80
E7FE00
E00000
E00000
E00000
E00000
E00000
ENDCHAR
STARTCHAR q
ENCODING 113
SWIDTH 968 0
DWIDTH 24 0
BBX 23 18 1 0
BITMAP
03FF80
0FFFE0
3FFFF0
3E01F8
780078
70003C
F0001C
E0001C
E0001C
E0001C
E0201C
F01E3C
700F3C
7807F8
3E01F0
1FFFF0
0FFFF8
03FF3E
ENDCHAR
STARTCHAR r
ENCODING 114
SWIDTH 921 0
DWIDTH 23 0
BBX 21 18 2 0
BITMAP
FFFE00
FFFF80
FFFFC0
E003E0
E000E0
E000E0
E000E0
E000E0
E000E0
E001E0
E7FFC0
E7FF80
E7FF00
E00F00
E00780
E003C0
E001E0
E000F8
ENDCHAR
STARTCHAR s
ENCODING 115
SWIDTH 880 0
DWIDTH 22 0
BBX 20 18 1 0
BITMAP
1FFFE0
3FFFE0
7FFFE0
F80000
F00000
F00000
F80000
7FFF80
3FFFE0
1FFFE0
0000F0
000070
000070
000070
0000F0
7FFFE0
7FFFC0
7FFF80
ENDCHAR
STARTCHAR t
ENCODING 116
SWIDTH 720 0
DWIDTH 18 0
BBX 17 18 0 0
BITMAP
FFFF80
FFFF80
FFFF80
01E000
01E000
01E000
01E000
01E000
01E000
01E000
01E000
01E000
01E000
01E000
01E000
01E000
01E000
01E000
ENDCHAR
STARTCHAR u
ENCODING 117
SWIDTH 889 0
DWIDTH 22 0
BBX 20 18 1 0
BITMAP
F00070
F00070
F00070
F00070
F00070
F00070
F00070
F00070
F00070
F00070
F00070
F00070
7000F0
7800E0
7E03E0
3FFFC0
1FFF80
03FE00
ENDCHAR
STARTCHAR v
ENCODING 118
SWIDTH 989 0
DWIDTH 25 0
BBX 24 18 0 0
BITMAP
F8000F
78000E
3C001E
3C001C
1E003C
0F0078
0F0070
0780F0
0380E0
03C1E0
01E3C0
01E380
00F780
007700
007E00
003E00
003C00
001800
ENDCHAR
STARTCHAR w
ENCODING 119
SWIDTH 1268 0
DWIDTH 32 0
BBX 31 18 0 0
BITMAP
F03C001E
783C001E
381E003C
3C1E0038
1E0F0078
1E0F0070
0F0780F0
0F0380E0
0783C1E0
0383C1C0
03C7E3C0
01C7E380
01EEF700
00EE7F00
00FC7E00
007C3E00
00783C00
00381C00
ENDCHAR
STARTCHAR x
ENCODING 120
SWIDTH 1000 0
DWIDTH 25 0
BBX 23 18 1 0
BITMAP
F8003E
3C0078
1E00F0
0F01E0
0783C0
03C780
01EF00
00FE00
007C00
007C00
01FE00
03CF00
078780
0F03E0
1E01F0
3C00F8
78007C
F0003E
ENDCHAR
STARTCHAR y
ENCODING 121
SWIDTH 926 0
DWIDTH 23 0
BBX 23 18 0 0
BITMAP
F8003E
3C003C
3E0078
1F00F0
0F01E0
0783C0
03C780
01EF00
00FF00
00FE00
007C00
003800
003800
003800
003800
003800
003800
003800
ENDCHAR
STARTCHAR z
ENCODING 122
SWIDTH 802 0
DWIDTH 20 0
BBX 18 18 1 0
BITMAP
FFFF80
FFFFC0
FFFFC0
000F80
001F00
003E00
007C00
00F800
01F000
03E000
07C000
0F8000
1F0000
3E0000
7C0000
FFFFC0
FFFFC0
FFFFC0
ENDCHAR
STARTCHAR braceleft
ENCODING 123
SWIDTH 337 0
DWIDTH 8 0
BBX 5 23 2 -2
BITMAP
38
78
60
60
60
60
60
60
60
60
60
C0
E0
60
60
60
60
60
60
60
60
78
38
ENDCHAR
STARTCHAR bar
ENCODING 124
SWIDTH 297 0
DWIDTH 7 0
BBX 2 23 3 -2
BITMAP
C0
C0
C0
C0
C0
C0
C0
C0
C0
C0
C0
C0
C0
C0
C0
C0
C0
C0
C0
C0
C0
C0
C0
ENDCHAR
STARTCHAR braceright
ENCODING 125
SWIDTH 337 0
DWIDTH 8 0
BBX 5 23 2 -2
BITMAP
C0
E0
60
70
70
70
70
70
70
70
30
38
38
70
70
70
70
70
70
70
70
E0
C0
ENDCHAR
STARTCHAR asciitilde
ENCODING 126
SWIDTH 691 0
DWIDTH 17 0
BBX 14 4 2 7
BITMAP
7C04
FF0C
C7FC
80F8
ENDCHAR
STARTCHAR nonbreakingspace
ENCODING 160
SWIDTH 294 0
DWIDTH 7 0
BBX 1 1 0 0
BITMAP
00
ENDCHAR
STARTCHAR exclamdown
ENCODING 161
SWIDTH 298 0
DWIDTH 7 0
BBX 3 18 2 0
BITMAP
E0
E0
E0
00
00
00
E0
E0
E0
E0
E0
E0
E0
E0
E0
E0
E0
E0
ENDCHAR
STARTCHAR cent
ENCODING 162
SWIDTH 692 0
DWIDTH 17 0
BBX 15 18 1 0
BITMAP
0040
0040
0FFE
3FFE
7FFE
7840
F040
E040
E040
E040
E040
F040
7840
3FFE
1FFE
0FFE
0040
0040
ENDCHAR
STARTCHAR sterling
ENCODING 163
SWIDTH 709 0
DWIDTH 18 0
BBX 16 18 1 0
BITMAP
07F8
1FF8
1FF8
3C00
3800
3800
3800
3800
7FC0
7FC0
3800
3800
3800
3800
3800
FFFF
FFFF
FFFF
ENDCHAR
STARTCHAR yen
ENCODING 165
SWIDTH 787 0
DWIDTH 20 0
BBX 19 18 0 0
BITMAP
F801E0
7803C0
3C0380
1E0780
1E0700
0F0E00
071E00
079C00
03F800
01F800
1FFF80
1FFF80
00E000
00E000
1FFF80
1FFF80
00E000
00E000
ENDCHAR
STARTCHAR brokenbar
ENCODING 166
SWIDTH 297 0
DWIDTH 7 0
BBX 2 23 3 -2
BITMAP
C0
C0
C0
C0
C0
C0
C0
C0
C0
C0
00
00
00
C0
C0
C0
C0
C0
C0
C0
C0
C0
C0
ENDCHAR
STARTCHAR section
ENCODING 167
SWIDTH 773 0
DWIDTH 19 0
BBX 17 23 1 -5
BITMAP
1FFE00
3FFE00
7FFE00
F00000
E00000
E00000
E00000
700000
7FFC00
3FFE00
700700
700700
700700
780F00
3FFE00
1FFF00
000700
000380
000380
000780
3FFF00
3FFF00
3FFE00
ENDCHAR
STARTCHAR dieresis
ENCODING 168
SWIDTH 393 0
DWIDTH 10 0
BBX 8 2 1 20
BITMAP
E7
66
ENDCHAR
STARTCHAR copyright
ENCODING 169
SWIDTH 829 0
DWIDTH 21 0
BBX 19 18 1 0
BITMAP
03F000
0E0E00
100300
200080
400080
41F040
820040
840020
840020
840020
840020
820040
41F040
400080
200080
100300
0E0C00
03F000
ENDCHAR
STARTCHAR ordfeminine
ENCODING 170
SWIDTH 604 0
DWIDTH 15 0
BBX 13 10 1 7
BITMAP
0200
0700
0D80
0D80
18C0
18E0
37E0
6030
6030
C018
ENDCHAR
STARTCHAR guillemotleft
ENCODING 171
SWIDTH 629 0
DWIDTH 16 0
BBX 14 9 1 5
BITMAP
0204
061C
1C30
30E0
C180
6180
3860
0C38
020C
ENDCHAR
STARTCHAR registered
ENCODING 174
SWIDTH 585 0
DWIDTH 15 0
BBX 11 12 2 6
BITMAP
1F00
2180
4040
9F60
9120
9120
9620
9320
8060
4040
6180
1F00
ENDCHAR
STARTCHAR macron
ENCODING 175
SWIDTH 362 0
DWIDTH 9 0
BBX 7 1 1 20
BITMAP
FE
ENDCHAR
STARTCHAR degree
ENCODING 176
SWIDTH 361 0
DWIDTH 9 0
BBX 7 6 1 12
BITMAP
7C
C6
86
86
C6
7C
ENDCHAR
STARTCHAR plusminus
ENCODING 177
SWIDTH 690 0
DWIDTH 17 0
BBX 14 17 2 -1
BITMAP
0300
0300
0300
0300
0300
0300
FFFC
FFFC
0300
0300
0300
0300
0300
0300
0000
FFFC
FFFC
ENDCHAR
STARTCHAR twosuperior
ENCODING 178
SWIDTH 442 0
DWIDTH 11 0
BBX 9 9 1 10
BITMAP
FF00
FF80
0180
0180
7F00
C000
C000
FF80
FF80
ENDCHAR
STARTCHAR threesuperior
ENCODING 179
SWIDTH 443 0
DWIDTH 11 0
BBX 9 9 1 10
BITMAP
FF00
FF80
0180
0180
3F00
0180
0180
FF80
FF00
ENDCHAR
STARTCHAR acute
ENCODING 180
SWIDTH 362 0
DWIDTH 9 0
BBX 7 3 1 19
BITMAP
0E
FE
C0
ENDCHAR
STARTCHAR paragraph
ENCODING 182
SWIDTH 629 0
DWIDTH 16 0
BBX 13 20 1 -2
BITMAP
3FF8
7FF8
FF18
FF18
FF18
FF18
7F18
3F18
0318
0318
0318
0318
0318
0318
0318
0318
0318
0318
0318
0318
ENDCHAR
STARTCHAR periodcentered
ENCODING 183
SWIDTH 262 0
DWIDTH 7 0
BBX 3 3 2 7
BITMAP
E0
E0
E0
ENDCHAR
STARTCHAR cedilla
ENCODING 184
SWIDTH 219 0
DWIDTH 5 0
BBX 3 4 1 -5
BITMAP
E0
60
40
40
ENDCHAR
STARTCHAR onesuperior
ENCODING 185
SWIDTH 222 0
DWIDTH 6 0
BBX 3 9 1 10
BITMAP
C0
E0
20
20
20
20
20
20
20
ENDCHAR
STARTCHAR ordmasculine
ENCODING 186
SWIDTH 592 0
DWIDTH 15 0
BBX 13 10 1 7
BITMAP
1FC0
3FE0
6030
C030
C018
C010
4030
6030
3FE0
1FC0
ENDCHAR
STARTCHAR guillemotright
ENCODING 187
SWIDTH 629 0
DWIDTH 16 0
BBX 14 9 1 5
BITMAP
8200
C180
70E0
1C30
061C
0E18
1860
61C0
C100
ENDCHAR
STARTCHAR onequarter
ENCODING 188
SWIDTH 972 0
DWIDTH 24 0
BBX 22 21 1 -2
BITMAP
3800E0
3C0180
0C0380
0C0300
0C0600
0C0C00
0C1C00
0C1800
0C3000
006000
00C418
01C418
018418
030418
060418
0E07FC
0C03FC
180018
300018
600000
E00000
ENDCHAR
STARTCHAR onehalf
ENCODING 189
SWIDTH 948 0
DWIDTH 24 0
BBX 22 21 1 -2
BITMAP
3800E0
3C0180
0C0380
0C0300
0C0600
0C0C00
0C1C00
0C1800
0C3000
006000
00C7F8
01C7F8
01800C
03000C
0603F8
0E0600
0C0400
1807FC
3007FC
600000
E00000
ENDCHAR
STARTCHAR threequarters
ENCODING 190
SWIDTH 1029 0
DWIDTH 26 0
BBX 24 21 1 -2
BITMAP
FF0070
FF8060
0180C0
018180
3F0380
018300
018600
FF8C00
FF1800
003800
003304
006304
00C304
01C304
018304
0303FF
0601FF
0C0004
1C0004
180000
700000
ENDCHAR
STARTCHAR questiondown
ENCODING 191
SWIDTH 776 0
DWIDTH 19 0
BBX 17 18 1 0
BITMAP
000600
000F00
000600
000000
000000
000000
000700
000F00
3FFE00
7FFE00
FFFC00
F00000
E00000
E00000
F00000
FFFF80
7FFF80
1FFF80
ENDCHAR
STARTCHAR Agrave
ENCODING 192
SWIDTH 989 0
DWIDTH 25 0
BBX 24 22 0 0
BITMAP
00F000
00FE00
000600
000000
001800
003C00
003E00
007E00
007F00
00F780
01E380
01C3C0
03C1E0
0381E0
0780F0
0F3FF0
0E3FF8
1E7FFC
3C003C
38001E
78000E
F0000F
ENDCHAR
STARTCHAR Aacute
ENCODING 193
SWIDTH 989 0
DWIDTH 25 0
BBX 24 22 0 0
BITMAP
000700
003F00
003000
000000
001800
003C00
003E00
007E00
007F00
00F780
01E380
01C3C0
03C1E0
0381E0
0780F0
0F3FF0
0E3FF8
1E7FFC
3C003C
38001E
78000E
F0000F
ENDCHAR
STARTCHAR Acircumflex
ENCODING 194
SWIDTH 989 0
DWIDTH 25 0
BBX 24 22 0 0
BITMAP
001C00
003400
002600
004100
001800
003C00
003E00
007E00
007F00
00F780
01E380
01C3C0
03C1E0
0381E0
0780F0
0F3FF0
0E3FF8
1E7FFC
3C003C
38001E
78000E
F0000F
ENDCHAR
STARTCHAR Atilde
ENCODING 195
SWIDTH 989 0
DWIDTH 25 0
BBX 24 22 0 0
BITMAP
007100
004E00
000000
000000
001800
003C00
003E00
007E00
007F00
00F780
01E380
01C3C0
03C1E0
0381E0
0780F0
0F3FF0
0E3FF8
1E7FFC
3C003C
38001E
78000E
F0000F
ENDCHAR
STARTCHAR Adieresis
ENCODING 196
SWIDTH 989 0
DWIDTH 25 0
BBX 24 22 0 0
BITMAP
006700
006300
000000
000000
001800
003C00
003E00
007E00
007F00
00F780
01E380
01C3C0
03C1E0
0381E0
0780F0
0F3FF0
0E3FF8
1E7FFC
3C003C
38001E
78000E
F0000F
ENDCHAR
STARTCHAR Aring
ENCODING 197
SWIDTH 989 0
DWIDTH 25 0
BBX 24 24 0 0
BITMAP
003E00
004200
004100
004200
003E00
000000
001800
003C00
003E00
007E00
007F00
00F780
01E380
01C3C0
03C1E0
0381E0
0780F0
0F3FF0
0E3FF8
1E7FFC
3C003C
38001E
78000E
F0000F
ENDCHAR
STARTCHAR AE
ENCODING 198
SWIDTH 1345 0
DWIDTH 34 0
BBX 32 18 0 0
BITMAP
001FFFFF
003FFFFF
007FFFFF
00707000
00F07000
00E07000
01E07000
01C071FF
038071FF
078071FF
07007000
0F3FF000
0E3FF000
1E7FF000
3C007000
38007FFF
78007FFF
F0007FFF
ENDCHAR
STARTCHAR Ccedilla
ENCODING 199
SWIDTH 829 0
DWIDTH 21 0
BBX 19 23 1 -5
BITMAP
03FFE0
0FFFE0
3FFFE0
3E0000
780000
700000
F00000
E00000
E00000
E00000
E00000
F00000
700000
780000
3E0000
1FFFE0
0FFFE0
03FFE0
000000
00F000
006000
004000
004000
ENDCHAR
STARTCHAR Egrave
ENCODING 200
SWIDTH 759 0
DWIDTH 19 0
BBX 16 22 2 0
BITMAP
0E00
0FC0
00C0
0000
FFFF
FFFF
FFFF
E000
E000
E000
E000
E7FE
E7FE
E7FE
E000
E000
E000
E000
E000
FFFF
FFFF
FFFF
ENDCHAR
STARTCHAR Eacute
ENCODING 201
SWIDTH 759 0
DWIDTH 19 0
BBX 16 22 2 0
BITMAP
00E0
07E0
0600
0000
FFFF
FFFF
FFFF
E000
E000
E000
E000
E7FE
E7FE
E7FE
E000
E000
E000
E000
E000
FFFF
FFFF
FFFF
ENDCHAR
STARTCHAR Ecircumflex
ENCODING 202
SWIDTH 759 0
DWIDTH 19 0
BBX 16 22 2 0
BITMAP
0380
06C0
0440
0820
FFFF
FFFF
FFFF
E000
E000
E000
E000
E7FE
E7FE
E7FE
E000
E000
E000
E000
E000
FFFF
FFFF
FFFF
ENDCHAR
STARTCHAR Edieresis
ENCODING 203
SWIDTH 759 0
DWIDTH 19 0
BBX 16 22 2 0
BITMAP
0C60
0C60
0000
0000
FFFF
FFFF
FFFF
E000
E000
E000
E000
E7FE
E7FE
E7FE
E000
E000
E000
E000
E000
FFFF
FFFF
FFFF
ENDCHAR
STARTCHAR Igrave
ENCODING 204
SWIDTH 267 0
DWIDTH 7 0
BBX 7 22 -1 0
BITMAP
F0
FE
06
00
1C
1C
1C
1C
1C
1C
1C
1C
1C
1C
1C
1C
1C
1C
1C
1C
1C
1C
ENDCHAR
STARTCHAR Iacute
ENCODING 205
SWIDTH 267 0
DWIDTH 7 0
BBX 6 22 1 0
BITMAP
1C
FC
C0
00
70
70
70
70
70
70
70
70
70
70
70
70
70
70
70
70
70
70
ENDCHAR
STARTCHAR Icircumflex
ENCODING 206
SWIDTH 267 0
DWIDTH 7 0
BBX 7 22 0 0
BITMAP
38
68
4C
82
38
38
38
38
38
38
38
38
38
38
38
38
38
38
38
38
38
38
ENDCHAR
STARTCHAR Idieresis
ENCODING 207
SWIDTH 267 0
DWIDTH 7 0
BBX 7 22 0 0
BITMAP
CE
C6
00
00
38
38
38
38
38
38
38
38
38
38
38
38
38
38
38
38
38
38
ENDCHAR
STARTCHAR Eth
ENCODING 208
SWIDTH 877 0
DWIDTH 22 0
BBX 21 18 0 0
BITMAP
3FFE00
3FFF80
3FFFC0
3803E0
3800F0
380070
380078
FFF038
FFF038
FFF038
380038
380078
380070
3800F0
3803E0
3FFFC0
3FFF80
3FFE00
ENDCHAR
STARTCHAR Ntilde
ENCODING 209
SWIDTH 873 0
DWIDTH 22 0
BBX 19 22 1 0
BITMAP
01C800
017800
000000
000000
6000E0
F000E0
F800E0
FC00E0
FE00E0
FF00E0
F7C0E0
F3E0E0
F1F0E0
F0F8E0
F07CE0
F03EE0
F01FE0
F00FE0
F007E0
F003E0
F001E0
F000E0
ENDCHAR
STARTCHAR Ograve
ENCODING 210
SWIDTH 968 0
DWIDTH 24 0
BBX 22 22 1 0
BITMAP
01C000
01FC00
000C00
000000
03FF80
0FFFE0
3FFFF0
3E01F8
780078
70003C
F0001C
E0001C
E0001C
E0001C
E0001C
F0003C
70003C
780078
3E01F0
1FFFF0
0FFFC0
03FF00
ENDCHAR
STARTCHAR Oacute
ENCODING 211
SWIDTH 968 0
DWIDTH 24 0
BBX 22 22 1 0
BITMAP
000E00
007E00
004000
000000
03FF80
0FFFE0
3FFFF0
3E01F8
780078
70003C
F0001C
E0001C
E0001C
E0001C
E0001C
F0003C
70003C
780078
3E01F0
1FFFF0
0FFFC0
03FF00
ENDCHAR
STARTCHAR Ocircumflex
ENCODING 212
SWIDTH 968 0
DWIDTH 24 0
BBX 22 22 1 0
BITMAP
003800
007800
00CC00
000200
03FF80
0FFFE0
3FFFF0
3E01F8
780078
70003C
F0001C
E0001C
E0001C
E0001C
E0001C
F0003C
70003C
780078
3E01F0
1FFFF0
0FFFC0
03FF00
ENDCHAR
STARTCHAR Otilde
ENCODING 213
SWIDTH 968 0
DWIDTH 24 0
BBX 22 22 1 0
BITMAP
00E200
009C00
000000
000000
03FF80
0FFFE0
3FFFF0
3E01F8
780078
70003C
F0001C
E0001C
E0001C
E0001C
E0001C
F0003C
70003C
780078
3E01F0
1FFFF0
0FFFC0
03FF00
ENDCHAR
STARTCHAR Odieresis
ENCODING 214
SWIDTH 968 0
DWIDTH 24 0
BBX 22 22 1 0
BITMAP
01CE00
00CC00
000000
000000
03FF80
0FFFE0
3FFFF0
3E01F8
780078
70003C
F0001C
E0001C
E0001C
E0001C
E0001C
F0003C
70003C
780078
3E01F0
1FFFF0
0FFFC0
03FF00
ENDCHAR
STARTCHAR multiply
ENCODING 215
SWIDTH 690 0
DWIDTH 17 0
BBX 11 12 3 3
BITMAP
4040
E0E0
71C0
3B80
1F00
0E00
1F00
3B80
71C0
E0E0
C060
4040
ENDCHAR
STARTCHAR Oslash
ENCODING 216
SWIDTH 968 0
DWIDTH 24 0
BBX 22 20 1 -1
BITMAP
000010
03FF20
0FFFE0
3FFFF0
3E01F8
780378
70063C
F0043C
E00C1C
E0181C
E0301C
E0601C
F0C01C
71803C
790078
3E01F0
1FFFF0
0FFFC0
1BFF00
300000
ENDCHAR
STARTCHAR Ugrave
ENCODING 217
SWIDTH 889 0
DWIDTH 22 0
BBX 20 22 1 0
BITMAP
038000
03F800
001800
000000
F00070
F00070
F00070
F00070
F00070
F00070
F00070
F00070
F00070
F00070
F00070
F00070
7000F0
7800E0
7E03E0
3FFFC0
1FFF80
03FE00
ENDCHAR
STARTCHAR Uacute
ENCODING 218
SWIDTH 889 0
DWIDTH 22 0
BBX 20 22 1 0
BITMAP
001C00
00FC00
008000
000000
F00070
F00070
F00070
F00070
F00070
F00070
F00070
F00070
F00070
F00070
F00070
F00070
7000F0
7800E0
7E03E0
3FFFC0
1FFF80
03FE00
ENDCHAR
STARTCHAR Ucircumflex
ENCODING 219
SWIDTH 889 0
DWIDTH 22 0
BBX 20 22 1 0
BITMAP
007000
00D000
019800
000400
F00070
F00070
F00070
F00070
F00070
F00070
F00070
F00070
F00070
F00070
F00070
F00070
7000F0
7800E0
7E03E0
3FFFC0
1FFF80
03FE00
ENDCHAR
STARTCHAR Udieresis
ENCODING 220
SWIDTH 889 0
DWIDTH 22 0
BBX 20 22 1 0
BITMAP
019C00
019C00
000000
000000
F00070
F00070
F00070
F00070
F00070
F00070
F00070
F00070
F00070
F00070
F00070
F00070
7000F0
7800E0
7E03E0
3FFFC0
1FFF80
03FE00
ENDCHAR
STARTCHAR Yacute
ENCODING 221
SWIDTH 926 0
DWIDTH 23 0
BBX 23 22 0 0
BITMAP
000F00
007F00
006000
000000
F8003E
3C003C
3E0078
1F00F0
0F01E0
0783C0
03C780
01EF00
00FF00
00FE00
007C00
003800
003800
003800
003800
003800
003800
003800
ENDCHAR
STARTCHAR Thorn
ENCODING 222
SWIDTH 843 0
DWIDTH 21 0
BBX 18 18 2 0
BITMAP
E00000
E00000
E00000
FFFE00
FFFF00
FFFF80
E003C0
E001C0
E001C0
E001C0
E001C0
E001C0
E007C0
E7FF80
E7FF00
E7FE00
E00000
E00000
ENDCHAR
STARTCHAR germandbls
ENCODING 223
SWIDTH 1760 0
DWIDTH 44 0
BBX 42 18 1 0
BITMAP
1FFFE07FFF80
3FFFE0FFFF80
7FFFE1FFFF80
F80003E00000
F00003C00000
F00003C00000
F80003E00000
7FFF81FFFE00
3FFFE0FFFF80
1FFFE07FFF80
0000F00003C0
0000700001C0
0000700001C0
0000700001C0
0000F00003C0
7FFFE1FFFF80
7FFFC1FFFF00
7FFF81FFFE00
ENDCHAR
STARTCHAR agrave
ENCODING 224
SWIDTH 989 0
DWIDTH 25 0
BBX 24 22 0 0
BITMAP
00F000
00FE00
000600
000000
001800
003C00
003E00
007E00
007F00
00F780
01E380
01C3C0
03C1E0
0381E0
0780F0
0F3FF0
0E3FF8
1E7FFC
3C003C
38001E
78000E
F0000F
ENDCHAR
STARTCHAR aacute
ENCODING 225
SWIDTH 989 0
DWIDTH 25 0
BBX 24 22 0 0
BITMAP
000700
003F00
003000
000000
001800
003C00
003E00
007E00
007F00
00F780
01E380
01C3C0
03C1E0
0381E0
0780F0
0F3FF0
0E3FF8
1E7FFC
3C003C
38001E
78000E
F0000F
ENDCHAR
STARTCHAR acircumflex
ENCODING 226
SWIDTH 989 0
DWIDTH 25 0
BBX 24 22 0 0
BITMAP
001C00
003400
002600
004100
001800
003C00
003E00
007E00
007F00
00F780
01E380
01C3C0
03C1E0
0381E0
0780F0
0F3FF0
0E3FF8
1E7FFC
3C003C
38001E
78000E
F0000F
ENDCHAR
STARTCHAR atilde
ENCODING 227
SWIDTH 989 0
DWIDTH 25 0
BBX 24 22 0 0
BITMAP
007100
004E00
000000
000000
001800
003C00
003E00
007E00
007F00
00F780
01E380
01C3C0
03C1E0
0381E0
0780F0
0F3FF0
0E3FF8
1E7FFC
3C003C
38001E
78000E
F0000F
ENDCHAR
STARTCHAR adieresis
ENCODING 228
SWIDTH 989 0
DWIDTH 25 0
BBX 24 22 0 0
BITMAP
006700
006300
000000
000000
001800
003C00
003E00
007E00
007F00
00F780
01E380
01C3C0
03C1E0
0381E0
0780F0
0F3FF0
0E3FF8
1E7FFC
3C003C
38001E
78000E
F0000F
ENDCHAR
STARTCHAR aring
ENCODING 229
SWIDTH 989 0
DWIDTH 25 0
BBX 24 24 0 0
BITMAP
003E00
004200
004100
004200
003E00
000000
001800
003C00
003E00
007E00
007F00
00F780
01E380
01C3C0
03C1E0
0381E0
0780F0
0F3FF0
0E3FF8
1E7FFC
3C003C
38001E
78000E
F0000F
ENDCHAR
STARTCHAR ae
ENCODING 230
SWIDTH 1345 0
DWIDTH 34 0
BBX 32 18 0 0
BITMAP
001FFFFF
003FFFFF
007FFFFF
00707000
00F07000
00E07000
01E07000
01C071FF
038071FF
078071FF
07007000
0F3FF000
0E3FF000
1E7FF000
3C007000
38007FFF
78007FFF
F0007FFF
ENDCHAR
STARTCHAR ccedilla
ENCODING 231
SWIDTH 829 0
DWIDTH 21 0
BBX 19 23 1 -5
BITMAP
03FFE0
0FFFE0
3FFFE0
3E0000
780000
700000
F00000
E00000
E00000
E00000
E00000
F00000
700000
780000
3E0000
1FFFE0
0FFFE0
03FFE0
000000
00F000
006000
004000
004000
ENDCHAR
STARTCHAR egrave
ENCODING 232
SWIDTH 759 0
DWIDTH 19 0
BBX 16 22 2 0
BITMAP
0E00
0FC0
00C0
0000
FFFF
FFFF
FFFF
E000
E000
E000
E000
E7FE
E7FE
E7FE
E000
E000
E000
E000
E000
FFFF
FFFF
FFFF
ENDCHAR
STARTCHAR eacute
ENCODING 233
SWIDTH 759 0
DWIDTH 19 0
BBX 16 22 2 0
BITMAP
00E0
07E0
0600
0000
FFFF
FFFF
FFFF
E000
E000
E000
E000
E7FE
E7FE
E7FE
E000
E000
E000
E000
E000
FFFF
FFFF
FFFF
ENDCHAR
STARTCHAR ecircumflex
ENCODING 234
SWIDTH 759 0
DWIDTH 19 0
BBX 16 22 2 0
BITMAP
0380
06C0
0440
0820
FFFF
FFFF
FFFF
E000
E000
E000
E000
E7FE
E7FE
E7FE
E000
E000
E000
E000
E000
FFFF
FFFF
FFFF
ENDCHAR
STARTCHAR edieresis
ENCODING 235
SWIDTH 759 0
DWIDTH 19 0
BBX 16 22 2 0
BITMAP
0C60
0C60
0000
0000
FFFF
FFFF
FFFF
E000
E000
E000
E000
E7FE
E7FE
E7FE
E000
E000
E000
E000
E000
FFFF
FFFF
FFFF
ENDCHAR
STARTCHAR igrave
ENCODING 236
SWIDTH 267 0
DWIDTH 7 0
BBX 7 22 -1 0
BITMAP
F0
FE
06
00
1C
1C
1C
1C
1C
1C
1C
1C
1C
1C
1C
1C
1C
1C
1C
1C
1C
1C
ENDCHAR
STARTCHAR iacute
ENCODING 237
SWIDTH 267 0
DWIDTH 7 0
BBX 6 22 1 0
BITMAP
1C
FC
C0
00
70
70
70
70
70
70
70
70
70
70
70
70
70
70
70
70
70
70
ENDCHAR
STARTCHAR icircumflex
ENCODING 238
SWIDTH 267 0
DWIDTH 7 0
BBX 7 22 0 0
BITMAP
38
68
4C
82
38
38
38
38
38
38
38
38
38
38
38
38
38
38
38
38
38
38
ENDCHAR
STARTCHAR idieresis
ENCODING 239
SWIDTH 267 0
DWIDTH 7 0
BBX 7 22 0 0
BITMAP
CE
C6
00
00
38
38
38
38
38
38
38
38
38
38
38
38
38
38
38
38
38
38
ENDCHAR
STARTCHAR eth
ENCODING 240
SWIDTH 877 0
DWIDTH 22 0
BBX 21 18 0 0
BITMAP
3FFE00
3FFF80
3FFFC0
3803E0
3800F0
380070
380078
FFF038
FFF038
FFF038
380038
380078
380070
3800F0
3803E0
3FFFC0
3FFF80
3FFE00
ENDCHAR
STARTCHAR ntilde
ENCODING 241
SWIDTH 873 0
DWIDTH 22 0
BBX 19 22 1 0
BITMAP
01C800
017800
000000
000000
6000E0
F000E0
F800E0
FC00E0
FE00E0
FF00E0
F7C0E0
F3E0E0
F1F0E0
F0F8E0
F07CE0
F03EE0
F01FE0
F00FE0
F007E0
F003E0
F001E0
F000E0
ENDCHAR
STARTCHAR ograve
ENCODING 242
SWIDTH 968 0
DWIDTH 24 0
BBX 22 22 1 0
BITMAP
01C000
01FC00
000C00
000000
03FF80
0FFFE0
3FFFF0
3E01F8
780078
70003C
F0001C
E0001C
E0001C
E0001C
E0001C
F0003C
70003C
780078
3E01F0
1FFFF0
0FFFC0
03FF00
ENDCHAR
STARTCHAR oacute
ENCODING 243
SWIDTH 968 0
DWIDTH 24 0
BBX 22 22 1 0
BITMAP
000E00
007E00
004000
000000
03FF80
0FFFE0
3FFFF0
3E01F8
780078
70003C
F0001C
E0001C
E0001C
E0001C
E0001C
F0003C
70003C
780078
3E01F0
1FFFF0
0FFFC0
03FF00
ENDCHAR
STARTCHAR ocircumflex
ENCODING 244
SWIDTH 968 0
DWIDTH 24 0
BBX 22 22 1 0
BITMAP
003800
007800
00CC00
000200
03FF80
0FFFE0
3FFFF0
3E01F8
780078
70003C
F0001C
E0001C
E0001C
E0001C
E0001C
F0003C
70003C
780078
3E01F0
1FFFF0
0FFFC0
03FF00
ENDCHAR
STARTCHAR otilde
ENCODING 245
SWIDTH 968 0
DWIDTH 24 0
BBX 22 22 1 0
BITMAP
00E200
009C00
000000
000000
03FF80
0FFFE0
3FFFF0
3E01F8
780078
70003C
F0001C
E0001C
E0001C
E0001C
E0001C
F0003C
70003C
780078
3E01F0
1FFFF0
0FFFC0
03FF00
ENDCHAR
STARTCHAR odieresis
ENCODING 246
SWIDTH 968 0
DWIDTH 24 0
BBX 22 22 1 0
BITMAP
01CE00
00CC00
000000
000000
03FF80
0FFFE0
3FFFF0
3E01F8
780078
70003C
F0001C
E0001C
E0001C
E0001C
E0001C
F0003C
70003C
780078
3E01F0
1FFFF0
0FFFC0
03FF00
ENDCHAR
STARTCHAR divide
ENCODING 247
SWIDTH 690 0
DWIDTH 17 0
BBX 14 16 2 1
BITMAP
0700
0700
0700
0000
0000
0000
0000
FFFC
FFFC
0000
0000
0000
0000
0700
0700
0700
ENDCHAR
STARTCHAR oslash
ENCODING 248
SWIDTH 968 0
DWIDTH 24 0
BBX 22 20 1 -1
BITMAP
000010
03FF20
0FFFE0
3FFFF0
3E01F8
780378
70063C
F0043C
E00C1C
E0181C
E0301C
E0601C
F0C01C
71803C
790078
3E01F0
1FFFF0
0FFFC0
1BFF00
300000
ENDCHAR
STARTCHAR ugrave
ENCODING 249
SWIDTH 889 0
DWIDTH 22 0
BBX 20 22 1 0
BITMAP
038000
03F800
001800
000000
F00070
F00070
F00070
F00070
F00070
F00070
F00070
F00070
F00070
F00070
F00070
F00070
7000F0
7800E0
7E03E0
3FFFC0
1FFF80
03FE00
ENDCHAR
STARTCHAR uacute
ENCODING 250
SWIDTH 889 0
DWIDTH 22 0
BBX 20 22 1 0
BITMAP
001C00
00FC00
008000
000000
F00070
F00070
F00070
F00070
F00070
F00070
F00070
F00070
F00070
F00070
F00070
F00070
7000F0
7800E0
7E03E0
3FFFC0
1FFF80
03FE00
ENDCHAR
STARTCHAR ucircumflex
ENCODING 251
SWIDTH 889 0
DWIDTH 22 0
BBX 20 22 1 0
BITMAP
007000
00D000
019800
000400
F00070
F00070
F00070
F00070
F00070
F00070
F00070
F00070
F00070
F00070
F00070
F00070
7000F0
7800E0
7E03E0
3FFFC0
1FFF80
03FE00
ENDCHAR
STARTCHAR udieresis
ENCODING 252
SWIDTH 889 0
DWIDTH 22 0
BBX 20 22 1 0
BITMAP
019C00
019C00
000000
000000
F00070
F00070
F00070
F00070
F00070
F00070
F00070
F00070
F00070
F00070
F00070
F00070
7000F0
7800E0
7E03E0
3FFFC0
1FFF80
03FE00
ENDCHAR
STARTCHAR yacute
ENCODING 253
SWIDTH 926 0
DWIDTH 23 0
BBX 23 22 0 0
BITMAP
000F00
007F00
006000
000000
F8003E
3C003C
3E0078
1F00F0
0F01E0
0783C0
03C780
01EF00
00FF00
00FE00
007C00
003800
003800
003800
003800
003800
003800
003800
ENDCHAR
STARTCHAR thorn
ENCODING 254
SWIDTH 843 0
DWIDTH 21 0
BBX 18 18 2 0
BITMAP
E00000
E00000
E00000
FFFE00
FFFF00
FFFF80
E003C0
E001C0
E001C0
E001C0
E001C0
E001C0
E007C0
E7FF80
E7FF00
E7FE00
E00000
E00000
ENDCHAR
STARTCHAR ydieresis
ENCODING 255
SWIDTH 926 0
DWIDTH 23 0
BBX 23 22 0 0
BITMAP
00E600
00C600
000000
000000
F8003E
3C003C
3E0078
1F00F0
0F01E0
0783C0
03C780
01EF00
00FF00
00FE00
007C00
003800
003800
003800
003800
003800
003800
003800
ENDCHAR
STARTCHAR Amacron
ENCODING 256
SWIDTH 989 0
DWIDTH 25 0
BBX 24 21 0 0
BITMAP
007F00
000000
000000
001800
003C00
003E00
007E00
007F00
00F780
01E380
01C3C0
03C1E0
0381E0
0780F0
0F3FF0
0E3FF8
1E7FFC
3C003C
38001E
78000E
F0000F
ENDCHAR
STARTCHAR amacron
ENCODING 257
SWIDTH 989 0
DWIDTH 25 0
BBX 24 21 0 0
BITMAP
007F00
000000
000000
001800
003C00
003E00
007E00
007F00
00F780
01E380
01C3C0
03C1E0
0381E0
0780F0
0F3FF0
0E3FF8
1E7FFC
3C003C
38001E
78000E
F0000F
ENDCHAR
STARTCHAR Abreve
ENCODING 258
SWIDTH 989 0
DWIDTH 25 0
BBX 24 23 0 0
BITMAP
006300
006300
006200
003C00
000000
001800
003C00
003E00
007E00
007F00
00F780
01E380
01C3C0
03C1E0
0381E0
0780F0
0F3FF0
0E3FF8
1E7FFC
3C003C
38001E
78000E
F0000F
ENDCHAR
STARTCHAR abreve
ENCODING 259
SWIDTH 989 0
DWIDTH 25 0
BBX 24 23 0 0
BITMAP
006300
006300
006200
003C00
000000
001800
003C00
003E00
007E00
007F00
00F780
01E380
01C3C0
03C1E0
0381E0
0780F0
0F3FF0
0E3FF8
1E7FFC
3C003C
38001E
78000E
F0000F
ENDCHAR
STARTCHAR Aogonek
ENCODING 260
SWIDTH 989 0
DWIDTH 25 0
BBX 24 23 0 -5
BITMAP
001800
003C00
003E00
007E00
007F00
00F780
01E380
01C3C0
03C1E0
0381E0
0780F0
0F3FF0
0E3FF8
1E7FFC
3C003C
38001E
78000E
F0000F
000003
000004
00000C
00000F
00000F
ENDCHAR
STARTCHAR aogonek
ENCODING 261
SWIDTH 989 0
DWIDTH 25 0
BBX 24 23 0 -5
BITMAP
001800
003C00
003E00
007E00
007F00
00F780
01E380
01C3C0
03C1E0
0381E0
0780F0
0F3FF0
0E3FF8
1E7FFC
3C003C
38001E
78000E
F0000F
000003
000004
00000C
00000F
00000F
ENDCHAR
STARTCHAR Cacute
ENCODING 262
SWIDTH 829 0
DWIDTH 21 0
BBX 19 22 1 0
BITMAP
001E00
00FE00
00C000
000000
03FFE0
0FFFE0
3FFFE0
3E0000
780000
700000
F00000
E00000
E00000
E00000
E00000
F00000
700000
780000
3E0000
1FFFE0
0FFFE0
03FFE0
ENDCHAR
STARTCHAR cacute
ENCODING 263
SWIDTH 829 0
DWIDTH 21 0
BBX 19 22 1 0
BITMAP
001E00
00FE00
00C000
000000
03FFE0
0FFFE0
3FFFE0
3E0000
780000
700000
F00000
E00000
E00000
E00000
E00000
F00000
700000
780000
3E0000
1FFFE0
0FFFE0
03FFE0
ENDCHAR
STARTCHAR Cdotaccent
ENCODING 266
SWIDTH 829 0
DWIDTH 21 0
BBX 19 22 1 0
BITMAP
003000
003000
000000
000000
03FFE0
0FFFE0
3FFFE0
3E0000
780000
700000
F00000
E00000
E00000
E00000
E00000
F00000
700000
780000
3E0000
1FFFE0
0FFFE0
03FFE0
ENDCHAR
STARTCHAR cdotaccent
ENCODING 267
SWIDTH 829 0
DWIDTH 21 0
BBX 19 22 1 0
BITMAP
003000
003000
000000
000000
03FFE0
0FFFE0
3FFFE0
3E0000
780000
700000
F00000
E00000
E00000
E00000
E00000
F00000
700000
780000
3E0000
1FFFE0
0FFFE0
03FFE0
ENDCHAR
STARTCHAR Ccaron
ENCODING 268
SWIDTH 829 0
DWIDTH 21 0
BBX 19 23 1 0
BITMAP
018C00
00C800
005800
007000
000000
03FFE0
0FFFE0
3FFFE0
3E0000
780000
700000
F00000
E00000
E00000
E00000
E00000
F00000
700000
780000
3E0000
1FFFE0
0FFFE0
03FFE0
ENDCHAR
STARTCHAR ccaron
ENCODING 269
SWIDTH 829 0
DWIDTH 21 0
BBX 19 23 1 0
BITMAP
018C00
00C800
005800
007000
000000
03FFE0
0FFFE0
3FFFE0
3E0000
780000
700000
F00000
E00000
E00000
E00000
E00000
F00000
700000
780000
3E0000
1FFFE0
0FFFE0
03FFE0
ENDCHAR
STARTCHAR Dcaron
ENCODING 270
SWIDTH 879 0
DWIDTH 22 0
BBX 19 23 2 0
BITMAP
042000
066000
03C000
018000
000000
FFF800
FFFE00
FFFF80
E00F80
E003C0
E001C0
E001E0
E000E0
E000E0
E000E0
E000E0
E001E0
E001C0
E003C0
E00F80
FFFF00
FFFE00
FFF800
ENDCHAR
STARTCHAR dcaron
ENCODING 271
SWIDTH 879 0
DWIDTH 22 0
BBX 19 23 2 0
BITMAP
042000
066000
03C000
018000
000000
FFF800
FFFE00
FFFF80
E00F80
E003C0
E001C0
E001E0
E000E0
E000E0
E000E0
E000E0
E001E0
E001C0
E003C0
E00F80
FFFF00
FFFE00
FFF800
ENDCHAR
STARTCHAR Dcroat
ENCODING 272
SWIDTH 877 0
DWIDTH 22 0
BBX 21 18 0 0
BITMAP
3FFE00
3FFF80
3FFFC0
3803E0
3800F0
380070
380078
FFF038
FFF038
FFF038
380038
380078
380070
3800F0
3803E0
3FFFC0
3FFF80
3FFE00
ENDCHAR
STARTCHAR dcroat
ENCODING 273
SWIDTH 877 0
DWIDTH 22 0
BBX 21 18 0 0
BITMAP
3FFE00
3FFF80
3FFFC0
3803E0
3800F0
380070
380078
FFF038
FFF038
FFF038
380038
380078
380070
3800F0
3803E0
3FFFC0
3FFF80
3FFE00
ENDCHAR
STARTCHAR Emacron
ENCODING 274
SWIDTH 759 0
DWIDTH 19 0
BBX 16 21 2 0
BITMAP
0FE0
0000
0000
FFFF
FFFF
FFFF
E000
E000
E000
E000
E7FE
E7FE
E7FE
E000
E000
E000
E000
E000
FFFF
FFFF
FFFF
ENDCHAR
STARTCHAR emacron
ENCODING 275
SWIDTH 759 0
DWIDTH 19 0
BBX 16 21 2 0
BITMAP
0FE0
0000
0000
FFFF
FFFF
FFFF
E000
E000
E000
E000
E7FE
E7FE
E7FE
E000
E000
E000
E000
E000
FFFF
FFFF
FFFF
ENDCHAR
STARTCHAR Ebreve
ENCODING 276
SWIDTH 759 0
DWIDTH 19 0
BBX 16 23 2 0
BITMAP
0C60
0C60
0440
07C0
0000
FFFF
FFFF
FFFF
E000
E000
E000
E000
E7FE
E7FE
E7FE
E000
E000
E000
E000
E000
FFFF
FFFF
FFFF
ENDCHAR
STARTCHAR ebreve
ENCODING 277
SWIDTH 759 0
DWIDTH 19 0
BBX 16 23 2 0
BITMAP
0C60
0C60
0440
07C0
0000
FFFF
FFFF
FFFF
E000
E000
E000
E000
E7FE
E7FE
E7FE
E000
E000
E000
E000
E000
FFFF
FFFF
FFFF
ENDCHAR
STARTCHAR Edotaccent
ENCODING 278
SWIDTH 759 0
DWIDTH 19 0
BBX 16 22 2 0
BITMAP
0380
0380
0000
0000
FFFF
FFFF
FFFF
E000
E000
E000
E000
E7FE
E7FE
E7FE
E000
E000
E000
E000
E000
FFFF
FFFF
FFFF
ENDCHAR
STARTCHAR edotaccent
ENCODING 279
SWIDTH 759 0
DWIDTH 19 0
BBX 16 22 2 0
BITMAP
0380
0380
0000
0000
FFFF
FFFF
FFFF
E000
E000
E000
E000
E7FE
E7FE
E7FE
E000
E000
E000
E000
E000
FFFF
FFFF
FFFF
ENDCHAR
STARTCHAR Eogonek
ENCODING 280
SWIDTH 759 0
DWIDTH 19 0
BBX 16 23 2 -5
BITMAP
FFFF
FFFF
FFFF
E000
E000
E000
E000
E7FE
E7FE
E7FE
E000
E000
E000
E000
E000
FFFF
FFFF
FFFF
0002
000C
0018
001F
000F
ENDCHAR
STARTCHAR eogonek
ENCODING 281
SWIDTH 759 0
DWIDTH 19 0
BBX 16 23 2 -5
BITMAP
FFFF
FFFF
FFFF
E000
E000
E000
E000
E7FE
E7FE
E7FE
E000
E000
E000
E000
E000
FFFF
FFFF
FFFF
0002
000C
0018
001F
000F
ENDCHAR
STARTCHAR Ecaron
ENCODING 282
SWIDTH 759 0
DWIDTH 19 0
BBX 16 23 2 0
BITMAP
0C60
0440
06C0
0380
0000
FFFF
FFFF
FFFF
E000
E000
E000
E000
E7FE
E7FE
E7FE
E000
E000
E000
E000
E000
FFFF
FFFF
FFFF
ENDCHAR
STARTCHAR ecaron
ENCODING 283
SWIDTH 759 0
DWIDTH 19 0
BBX 16 23 2 0
BITMAP
0C60
0440
06C0
0380
0000
FFFF
FFFF
FFFF
E000
E000
E000
E000
E7FE
E7FE
E7FE
E000
E000
E000
E000
E000
FFFF
FFFF
FFFF
ENDCHAR
STARTCHAR Gbreve
ENCODING 286
SWIDTH 888 0
DWIDTH 22 0
BBX 20 23 1 0
BITMAP
018400
008C00
00CC00
007800
000000
03FFE0
0FFFE0
3FFFE0
3E0000
780000
700000
F00000
E0FFF0
E0FFF0
E0FFF0
E00070
F00070
700070
780070
3E0070
1FFFF0
0FFFF0
03FFF0
ENDCHAR
STARTCHAR gbreve
ENCODING 287
SWIDTH 888 0
DWIDTH 22 0
BBX 20 23 1 0
BITMAP
018400
008C00
00CC00
007800
000000
03FFE0
0FFFE0
3FFFE0
3E0000
780000
700000
F00000
E0FFF0
E0FFF0
E0FFF0
E00070
F00070
700070
780070
3E0070
1FFFF0
0FFFF0
03FFF0
ENDCHAR
STARTCHAR Gdotaccent
ENCODING 288
SWIDTH 888 0
DWIDTH 22 0
BBX 20 22 1 0
BITMAP
003000
003000
000000
000000
03FFE0
0FFFE0
3FFFE0
3E0000
780000
700000
F00000
E0FFF0
E0FFF0
E0FFF0
E00070
F00070
700070
780070
3E0070
1FFFF0
0FFFF0
03FFF0
ENDCHAR
STARTCHAR gdotaccent
ENCODING 289
SWIDTH 888 0
DWIDTH 22 0
BBX 20 22 1 0
BITMAP
003000
003000
000000
000000
03FFE0
0FFFE0
3FFFE0
3E0000
780000
700000
F00000
E0FFF0
E0FFF0
E0FFF0
E00070
F00070
700070
780070
3E0070
1FFFF0
0FFFF0
03FFF0
ENDCHAR
STARTCHAR Gcommaaccent
ENCODING 290
SWIDTH 888 0
DWIDTH 22 0
BBX 20 23 1 -5
BITMAP
03FFE0
0FFFE0
3FFFE0
3E0000
780000
700000
F00000
E0FFF0
E0FFF0
E0FFF0
E00070
F00070
700070
780070
3E0070
1FFFF0
0FFFF0
03FFF0
000000
007000
006000
002000
002000
ENDCHAR
STARTCHAR gcommaaccent
ENCODING 291
SWIDTH 888 0
DWIDTH 22 0
BBX 20 23 1 -5
BITMAP
03FFE0
0FFFE0
3FFFE0
3E0000
780000
700000
F00000
E0FFF0
E0FFF0
E0FFF0
E00070
F00070
700070
780070
3E0070
1FFFF0
0FFFF0
03FFF0
000000
007000
006000
002000
002000
ENDCHAR
STARTCHAR Hbar
ENCODING 294
SWIDTH 838 0
DWIDTH 21 0
BBX 17 18 2 0
BITMAP
E00380
E00380
E00380
E7FF80
E00380
E00380
E00380
E7FF80
E7FF80
E7FF80
E00380
E00380
E00380
E00380
E00380
E00380
E00380
E00380
ENDCHAR
STARTCHAR hbar
ENCODING 295
SWIDTH 838 0
DWIDTH 21 0
BBX 17 18 2 0
BITMAP
E00380
E00380
E00380
E7FF80
E00380
E00380
E00380
E7FF80
E7FF80
E7FF80
E00380
E00380
E00380
E00380
E00380
E00380
E00380
E00380
ENDCHAR
STARTCHAR uni012A
ENCODING 298
SWIDTH 267 0
DWIDTH 7 0
BBX 7 21 0 0
BITMAP
FE
00
00
38
38
38
38
38
38
38
38
38
38
38
38
38
38
38
38
38
38
ENDCHAR
STARTCHAR imacron
ENCODING 299
SWIDTH 267 0
DWIDTH 7 0
BBX 7 21 0 0
BITMAP
FE
00
00
38
38
38
38
38
38
38
38
38
38
38
38
38
38
38
38
38
38
ENDCHAR
STARTCHAR Ibreve
ENCODING 300
SWIDTH 267 0
DWIDTH 7 0
BBX 7 23 0 0
BITMAP
C6
C6
C4
7C
00
38
38
38
38
38
38
38
38
38
38
38
38
38
38
38
38
38
38
ENDCHAR
STARTCHAR ibreve
ENCODING 301
SWIDTH 267 0
DWIDTH 7 0
BBX 7 23 0 0
BITMAP
C6
C6
C4
7C
00
38
38
38
38
38
38
38
38
38
38
38
38
38
38
38
38
38
38
ENDCHAR
STARTCHAR Iogonek
ENCODING 302
SWIDTH 267 0
DWIDTH 7 0
BBX 5 23 0 -5
BITMAP
38
38
38
38
38
38
38
38
38
38
38
38
38
38
38
38
38
38
10
60
C0
F8
78
ENDCHAR
STARTCHAR iogonek
ENCODING 303
SWIDTH 267 0
DWIDTH 7 0
BBX 5 23 0 -5
BITMAP
38
38
38
38
38
38
38
38
38
38
38
38
38
38
38
38
38
38
10
60
C0
F8
78
ENDCHAR
STARTCHAR Idotaccent
ENCODING 304
SWIDTH 267 0
DWIDTH 7 0
BBX 3 22 2 0
BITMAP
E0
C0
00
00
E0
E0
E0
E0
E0
E0
E0
E0
E0
E0
E0
E0
E0
E0
E0
E0
E0
E0
ENDCHAR
STARTCHAR dotlessi
ENCODING 305
SWIDTH 267 0
DWIDTH 7 0
BBX 3 18 2 0
BITMAP
E0
E0
E0
E0
E0
E0
E0
E0
E0
E0
E0
E0
E0
E0
E0
E0
E0
E0
ENDCHAR
STARTCHAR IJ
ENCODING 306
SWIDTH 975 0
DWIDTH 24 0
BBX 21 18 2 0
BITMAP
E00038
E00038
E00038
E00038
E00038
E00038
E00038
E00038
E00038
E00038
E00038
E00038
E00078
E00078
E001F0
E7FFE0
E7FFC0
E7FF00
ENDCHAR
STARTCHAR ij
ENCODING 307
SWIDTH 975 0
DWIDTH 24 0
BBX 21 18 2 0
BITMAP
E00038
E00038
E00038
E00038
E00038
E00038
E00038
E00038
E00038
E00038
E00038
E00038
E00078
E00078
E001F0
E7FFE0
E7FFC0
E7FF00
ENDCHAR
STARTCHAR Kcommaaccent
ENCODING 310
SWIDTH 875 0
DWIDTH 22 0
BBX 19 23 2 -5
BITMAP
E007E0
E00F80
E01F00
E03C00
E0F800
E1F000
E3C000
EF8000
EF0000
EF0000
E78000
E3E000
E1F000
E07800
E03E00
E01F00
E00780
E003E0
000000
01E000
00C000
00C000
008000
ENDCHAR
STARTCHAR kcommaaccent
ENCODING 311
SWIDTH 875 0
DWIDTH 22 0
BBX 19 23 2 -5
BITMAP
E007E0
E00F80
E01F00
E03C00
E0F800
E1F000
E3C000
EF8000
EF0000
EF0000
E78000
E3E000
E1F000
E07800
E03E00
E01F00
E00780
E003E0
000000
01E000
00C000
00C000
008000
ENDCHAR
STARTCHAR Lacute
ENCODING 313
SWIDTH 707 0
DWIDTH 18 0
BBX 16 22 1 0
BITMAP
1C00
FC00
8000
0000
7000
7000
7000
7000
7000
7000
7000
7000
7000
7000
7000
7000
7000
7000
7000
7FFF
7FFF
7FFF
ENDCHAR
STARTCHAR lacute
ENCODING 314
SWIDTH 707 0
DWIDTH 18 0
BBX 16 22 1 0
BITMAP
1C00
FC00
8000
0000
7000
7000
7000
7000
7000
7000
7000
7000
7000
7000
7000
7000
7000
7000
7000
7FFF
7FFF
7FFF
ENDCHAR
STARTCHAR Lcommaaccent
ENCODING 315
SWIDTH 707 0
DWIDTH 18 0
BBX 15 23 2 -5
BITMAP
E000
E000
E000
E000
E000
E000
E000
E000
E000
E000
E000
E000
E000
E000
E000
FFFE
FFFE
FFFE
0000
0380
0300
0100
0100
ENDCHAR
STARTCHAR lcommaaccent
ENCODING 316
SWIDTH 707 0
DWIDTH 18 0
BBX 15 23 2 -5
BITMAP
E000
E000
E000
E000
E000
E000
E000
E000
E000
E000
E000
E000
E000
E000
E000
FFFE
FFFE
FFFE
0000
0380
0300
0100
0100
ENDCHAR
STARTCHAR Lcaron
ENCODING 317
SWIDTH 707 0
DWIDTH 18 0
BBX 15 18 2 0
BITMAP
E380
E380
E300
E300
E300
E300
E000
E000
E000
E000
E000
E000
E000
E000
E000
FFFE
FFFE
FFFE
ENDCHAR
STARTCHAR lcaron
ENCODING 318
SWIDTH 707 0
DWIDTH 18 0
BBX 15 18 2 0
BITMAP
E380
E380
E300
E300
E300
E300
E000
E000
E000
E000
E000
E000
E000
E000
E000
FFFE
FFFE
FFFE
ENDCHAR
STARTCHAR Ldot
ENCODING 319
SWIDTH 707 0
DWIDTH 18 0
BBX 15 18 2 0
BITMAP
E000
E000
E000
E000
E000
E000
E000
E000
E700
E600
E000
E000
E000
E000
E000
FFFE
FFFE
FFFE
ENDCHAR
STARTCHAR ldot
ENCODING 320
SWIDTH 707 0
DWIDTH 18 0
BBX 15 18 2 0
BITMAP
E000
E000
E000
E000
E000
E000
E000
E000
E700
E600
E000
E000
E000
E000
E000
FFFE
FFFE
FFFE
ENDCHAR
STARTCHAR Lslash
ENCODING 321
SWIDTH 707 0
DWIDTH 18 0
BBX 15 18 2 0
BITMAP
E000
E000
E000
E000
E000
E040
E1C0
EFC0
FF00
FC00
F000
E000
E000
E000
E000
FFFE
FFFE
FFFE
ENDCHAR
STARTCHAR lslash
ENCODING 322
SWIDTH 707 0
DWIDTH 18 0
BBX 15 18 2 0
BITMAP
E000
E000
E000
E000
E000
E040
E1C0
EFC0
FF00
FC00
F000
E000
E000
E000
E000
FFFE
FFFE
FFFE
ENDCHAR
STARTCHAR Nacute
ENCODING 323
SWIDTH 873 0
DWIDTH 22 0
BBX 19 22 1 0
BITMAP
001C00
01FC00
018000
000000
6000E0
F000E0
F800E0
FC00E0
FE00E0
FF00E0
F7C0E0
F3E0E0
F1F0E0
F0F8E0
F07CE0
F03EE0
F01FE0
F00FE0
F007E0
F003E0
F001E0
F000E0
ENDCHAR
STARTCHAR nacute
ENCODING 324
SWIDTH 873 0
DWIDTH 22 0
BBX 19 22 1 0
BITMAP
001C00
01FC00
018000
000000
6000E0
F000E0
F800E0
FC00E0
FE00E0
FF00E0
F7C0E0
F3E0E0
F1F0E0
F0F8E0
F07CE0
F03EE0
F01FE0
F00FE0
F007E0
F003E0
F001E0
F000E0
ENDCHAR
STARTCHAR Ncommaaccent
ENCODING 325
SWIDTH 873 0
DWIDTH 22 0
BBX 19 23 1 -5
BITMAP
6000E0
F000E0
F800E0
FC00E0
FE00E0
FF00E0
F7C0E0
F3E0E0
F1F0E0
F0F8E0
F07CE0
F03EE0
F01FE0
F00FE0
F007E0
F003E0
F001E0
F000E0
000000
00F000
006000
004000
004000
ENDCHAR
STARTCHAR ncommaaccent
ENCODING 326
SWIDTH 873 0
DWIDTH 22 0
BBX 19 23 1 -5
BITMAP
6000E0
F000E0
F800E0
FC00E0
FE00E0
FF00E0
F7C0E0
F3E0E0
F1F0E0
F0F8E0
F07CE0
F03EE0
F01FE0
F00FE0
F007E0
F003E0
F001E0
F000E0
000000
00F000
006000
004000
004000
ENDCHAR
STARTCHAR Ncaron
ENCODING 327
SWIDTH 873 0
DWIDTH 22 0
BBX 19 23 1 0
BITMAP
030800
019800
00B000
00E000
000000
6000E0
F000E0
F800E0
FC00E0
FE00E0
FF00E0
F7C0E0
F3E0E0
F1F0E0
F0F8E0
F07CE0
F03EE0
F01FE0
F00FE0
F007E0
F003E0
F001E0
F000E0
ENDCHAR
STARTCHAR ncaron
ENCODING 328
SWIDTH 873 0
DWIDTH 22 0
BBX 19 23 1 0
BITMAP
030800
019800
00B000
00E000
000000
6000E0
F000E0
F800E0
FC00E0
FE00E0
FF00E0
F7C0E0
F3E0E0
F1F0E0
F0F8E0
F07CE0
F03EE0
F01FE0
F00FE0
F007E0
F003E0
F001E0
F000E0
ENDCHAR
STARTCHAR Eng
ENCODING 330
SWIDTH 873 0
DWIDTH 22 0
BBX 19 23 1 -5
BITMAP
6000E0
F000E0
F800E0
FC00E0
FE00E0
FF00E0
F7C0E0
F3E0E0
F1F0E0
F0F8E0
F07CE0
F03EE0
F01FE0
F00FE0
F007E0
F003E0
F001E0
F000E0
0001E0
0007E0
00FFC0
00FF00
00FC00
ENDCHAR
STARTCHAR eng
ENCODING 331
SWIDTH 873 0
DWIDTH 22 0
BBX 19 23 1 -5
BITMAP
6000E0
F000E0
F800E0
FC00E0
FE00E0
FF00E0
F7C0E0
F3E0E0
F1F0E0
F0F8E0
F07CE0
F03EE0
F01FE0
F00FE0
F007E0
F003E0
F001E0
F000E0
0001E0
0007E0
00FFC0
00FF00
00FC00
ENDCHAR
STARTCHAR Omacron
ENCODING 332
SWIDTH 968 0
DWIDTH 24 0
BBX 22 21 1 0
BITMAP
00FC00
000000
000000
03FF80
0FFFE0
3FFFF0
3E01F8
780078
70003C
F0001C
E0001C
E0001C
E0001C
E0001C
F0003C
70003C
780078
3E01F0
1FFFF0
0FFFC0
03FF00
ENDCHAR
STARTCHAR omacron
ENCODING 333
SWIDTH 968 0
DWIDTH 24 0
BBX 22 21 1 0
BITMAP
00FC00
000000
000000
03FF80
0FFFE0
3FFFF0
3E01F8
780078
70003C
F0001C
E0001C
E0001C
E0001C
E0001C
F0003C
70003C
780078
3E01F0
1FFFF0
0FFFC0
03FF00
ENDCHAR
STARTCHAR Obreve
ENCODING 334
SWIDTH 968 0
DWIDTH 24 0
BBX 22 23 1 0
BITMAP
008600
008400
00CC00
007800
000000
03FF80
0FFFE0
3FFFF0
3E01F8
780078
70003C
F0001C
E0001C
E0001C
E0001C
E0001C
F0003C
70003C
780078
3E01F0
1FFFF0
0FFFC0
03FF00
ENDCHAR
STARTCHAR obreve
ENCODING 335
SWIDTH 968 0
DWIDTH 24 0
BBX 22 23 1 0
BITMAP
008600
008400
00CC00
007800
000000
03FF80
0FFFE0
3FFFF0
3E01F8
780078
70003C
F0001C
E0001C
E0001C
E0001C
E0001C
F0003C
70003C
780078
3E01F0
1FFFF0
0FFFC0
03FF00
ENDCHAR
STARTCHAR Ohungarumlaut
ENCODING 336
SWIDTH 968 0
DWIDTH 24 0
BBX 22 22 1 0
BITMAP
007700
006600
00CC00
000000
03FF80
0FFFE0
3FFFF0
3E01F8
780078
70003C
F0001C
E0001C
E0001C
E0001C
E0001C
F0003C
70003C
780078
3E01F0
1FFFF0
0FFFC0
03FF00
ENDCHAR
STARTCHAR ohungarumlaut
ENCODING 337
SWIDTH 968 0
DWIDTH 24 0
BBX 22 22 1 0
BITMAP
007700
006600
00CC00
000000
03FF80
0FFFE0
3FFFF0
3E01F8
780078
70003C
F0001C
E0001C
E0001C
E0001C
E0001C
F0003C
70003C
780078
3E01F0
1FFFF0
0FFFC0
03FF00
ENDCHAR
STARTCHAR OE
ENCODING 338
SWIDTH 1304 0
DWIDTH 33 0
BBX 30 18 1 0
BITMAP
03FFFFFC
0FFFFFFC
3FFFFFFC
3E01C000
7801C000
7001C000
F001C000
E001CFFC
E001CFFC
E001CFFC
E001C000
F001C000
7001C000
7801C000
3E01C000
1FFFFFFC
0FFFFFFC
03FFFFFC
ENDCHAR
STARTCHAR oe
ENCODING 339
SWIDTH 1304 0
DWIDTH 33 0
BBX 30 18 1 0
BITMAP
03FFFFFC
0FFFFFFC
3FFFFFFC
3E01C000
7801C000
7001C000
F001C000
E001CFFC
E001CFFC
E001CFFC
E001C000
F001C000
7001C000
7801C000
3E01C000
1FFFFFFC
0FFFFFFC
03FFFFFC
ENDCHAR
STARTCHAR Racute
ENCODING 340
SWIDTH 921 0
DWIDTH 23 0
BBX 21 22 2 0
BITMAP
007000
03F000
030000
000000
FFFE00
FFFF80
FFFFC0
E003E0
E000E0
E000E0
E000E0
E000E0
E000E0
E001E0
E7FFC0
E7FF80
E7FF00
E00F00
E00780
E003C0
E001E0
E000F8
ENDCHAR
STARTCHAR racute
ENCODING 341
SWIDTH 921 0
DWIDTH 23 0
BBX 21 22 2 0
BITMAP
007000
03F000
030000
000000
FFFE00
FFFF80
FFFFC0
E003E0
E000E0
E000E0
E000E0
E000E0
E000E0
E001E0
E7FFC0
E7FF80
E7FF00
E00F00
E00780
E003C0
E001E0
E000F8
ENDCHAR
STARTCHAR Rcommaaccent
ENCODING 342
SWIDTH 921 0
DWIDTH 23 0
BBX 21 23 2 -5
BITMAP
FFFE00
FFFF80
FFFFC0
E003E0
E000E0
E000E0
E000E0
E000E0
E000E0
E001E0
E7FFC0
E7FF80
E7FF00
E00F00
E00780
E003C0
E001E0
E000F8
000000
00E000
00E000
004000
004000
ENDCHAR
STARTCHAR rcommaaccent
ENCODING 343
SWIDTH 921 0
DWIDTH 23 0
BBX 21 23 2 -5
BITMAP
FFFE00
FFFF80
FFFFC0
E003E0
E000E0
E000E0
E000E0
E000E0
E000E0
E001E0
E7FFC0
E7FF80
E7FF00
E00F00
E00780
E003C0
E001E0
E000F8
000000
00E000
00E000
004000
004000
ENDCHAR
STARTCHAR Rcaron
ENCODING 344
SWIDTH 921 0
DWIDTH 23 0
BBX 21 23 2 0
BITMAP
063000
022000
036000
01C000
000000
FFFE00
FFFF80
FFFFC0
E003E0
E000E0
E000E0
E000E0
E000E0
E000E0
E001E0
E7FFC0
E7FF80
E7FF00
E00F00
E00780
E003C0
E001E0
E000F8
ENDCHAR
STARTCHAR rcaron
ENCODING 345
SWIDTH 921 0
DWIDTH 23 0
BBX 21 23 2 0
BITMAP
063000
022000
036000
01C000
000000
FFFE00
FFFF80
FFFFC0
E003E0
E000E0
E000E0
E000E0
E000E0
E000E0
E001E0
E7FFC0
E7FF80
E7FF00
E00F00
E00780
E003C0
E001E0
E000F8
ENDCHAR
STARTCHAR Sacute
ENCODING 346
SWIDTH 880 0
DWIDTH 22 0
BBX 20 22 1 0
BITMAP
001C00
00FC00
008000
000000
1FFFE0
3FFFE0
7FFFE0
F80000
F00000
F00000
F80000
7FFF80
3FFFE0
1FFFE0
0000F0
000070
000070
000070
0000F0
7FFFE0
7FFFC0
7FFF80
ENDCHAR
STARTCHAR sacute
ENCODING 347
SWIDTH 880 0
DWIDTH 22 0
BBX 20 22 1 0
BITMAP
001C00
00FC00
008000
000000
1FFFE0
3FFFE0
7FFFE0
F80000
F00000
F00000
F80000
7FFF80
3FFFE0
1FFFE0
0000F0
000070
000070
000070
0000F0
7FFFE0
7FFFC0
7FFF80
ENDCHAR
STARTCHAR Scedilla
ENCODING 350
SWIDTH 880 0
DWIDTH 22 0
BBX 20 23 1 -5
BITMAP
1FFFE0
3FFFE0
7FFFE0
F80000
F00000
F00000
F80000
7FFF80
3FFFE0
1FFFE0
0000F0
000070
000070
000070
0000F0
7FFFE0
7FFFC0
7FFF80
000000
00F000
006000
006000
004000
ENDCHAR
STARTCHAR scedilla
ENCODING 351
SWIDTH 880 0
DWIDTH 22 0
BBX 20 23 1 -5
BITMAP
1FFFE0
3FFFE0
7FFFE0
F80000
F00000
F00000
F80000
7FFF80
3FFFE0
1FFFE0
0000F0
000070
000070
000070
0000F0
7FFFE0
7FFFC0
7FFF80
000000
00F000
006000
006000
004000
ENDCHAR
STARTCHAR Scaron
ENCODING 352
SWIDTH 880 0
DWIDTH 22 0
BBX 20 23 1 0
BITMAP
018C00
009800
00D000
007000
000000
1FFFE0
3FFFE0
7FFFE0
F80000
F00000
F00000
F80000
7FFF80
3FFFE0
1FFFE0
0000F0
000070
000070
000070
0000F0
7FFFE0
7FFFC0
7FFF80
ENDCHAR
STARTCHAR scaron
ENCODING 353
SWIDTH 880 0
DWIDTH 22 0
BBX 20 23 1 0
BITMAP
018C00
009800
00D000
007000
000000
1FFFE0
3FFFE0
7FFFE0
F80000
F00000
F00000
F80000
7FFF80
3FFFE0
1FFFE0
0000F0
000070
000070
000070
0000F0
7FFFE0
7FFFC0
7FFF80
ENDCHAR
STARTCHAR Tcommaaccent
ENCODING 354
SWIDTH 720 0
DWIDTH 18 0
BBX 17 23 0 -5
BITMAP
FFFF80
FFFF80
FFFF80
01E000
01E000
01E000
01E000
01E000
01E000
01E000
01E000
01E000
01E000
01E000
01E000
01E000
01E000
01E000
000000
01E000
00C000
00C000
008000
ENDCHAR
STARTCHAR tcommaaccent
ENCODING 355
SWIDTH 720 0
DWIDTH 18 0
BBX 17 23 0 -5
BITMAP
FFFF80
FFFF80
FFFF80
01E000
01E000
01E000
01E000
01E000
01E000
01E000
01E000
01E000
01E000
01E000
01E000
01E000
01E000
01E000
000000
01E000
00C000
00C000
008000
ENDCHAR
STARTCHAR Tcaron
ENCODING 356
SWIDTH 720 0
DWIDTH 18 0
BBX 17 23 0 0
BITMAP
021000
033000
01E000
00C000
000000
FFFF80
FFFF80
FFFF80
01E000
01E000
01E000
01E000
01E000
01E000
01E000
01E000
01E000
01E000
01E000
01E000
01E000
01E000
01E000
ENDCHAR
STARTCHAR tcaron
ENCODING 357
SWIDTH 720 0
DWIDTH 18 0
BBX 17 23 0 0
BITMAP
021000
033000
01E000
00C000
000000
FFFF80
FFFF80
FFFF80
01E000
01E000
01E000
01E000
01E000
01E000
01E000
01E000
01E000
01E000
01E000
01E000
01E000
01E000
01E000
ENDCHAR
STARTCHAR Tbar
ENCODING 358
SWIDTH 720 0
DWIDTH 18 0
BBX 17 18 0 0
BITMAP
FFFF80
FFFF80
FFFF80
01E000
01E000
01E000
01E000
01E000
01E000
01E000
0FFC00
0FFC00
01E000
01E000
01E000
01E000
01E000
01E000
ENDCHAR
STARTCHAR tbar
ENCODING 359
SWIDTH 720 0
DWIDTH 18 0
BBX 17 18 0 0
BITMAP
FFFF80
FFFF80
FFFF80
01E000
01E000
01E000
01E000
01E000
01E000
01E000
0FFC00
0FFC00
01E000
01E000
01E000
01E000
01E000
01E000
ENDCHAR
STARTCHAR Utilde
ENCODING 360
SWIDTH 889 0
DWIDTH 22 0
BBX 20 22 1 0
BITMAP
01C400
013800
000000
000000
F00070
F00070
F00070
F00070
F00070
F00070
F00070
F00070
F00070
F00070
F00070
F00070
7000F0
7800E0
7E03E0
3FFFC0
1FFF80
03FE00
ENDCHAR
STARTCHAR utilde
ENCODING 361
SWIDTH 889 0
DWIDTH 22 0
BBX 20 22 1 0
BITMAP
01C400
013800
000000
000000
F00070
F00070
F00070
F00070
F00070
F00070
F00070
F00070
F00070
F00070
F00070
F00070
7000F0
7800E0
7E03E0
3FFFC0
1FFF80
03FE00
ENDCHAR
STARTCHAR Umacron
ENCODING 362
SWIDTH 889 0
DWIDTH 22 0
BBX 20 21 1 0
BITMAP
01F800
000000
000000
F00070
F00070
F00070
F00070
F00070
F00070
F00070
F00070
F00070
F00070
F00070
F00070
7000F0
7800E0
7E03E0
3FFFC0
1FFF80
03FE00
ENDCHAR
STARTCHAR umacron
ENCODING 363
SWIDTH 889 0
DWIDTH 22 0
BBX 20 21 1 0
BITMAP
01F800
000000
000000
F00070
F00070
F00070
F00070
F00070
F00070
F00070
F00070
F00070
F00070
F00070
F00070
7000F0
7800E0
7E03E0
3FFFC0
1FFF80
03FE00
ENDCHAR
STARTCHAR Ubreve
ENCODING 364
SWIDTH 889 0
DWIDTH 22 0
BBX 20 23 1 0
BITMAP
010C00
010800
019800
00F000
000000
F00070
F00070
F00070
F00070
F00070
F00070
F00070
F00070
F00070
F00070
F00070
F00070
7000F0
7800E0
7E03E0
3FFFC0
1FFF80
03FE00
ENDCHAR
STARTCHAR ubreve
ENCODING 365
SWIDTH 889 0
DWIDTH 22 0
BBX 20 23 1 0
BITMAP
010C00
010800
019800
00F000
000000
F00070
F00070
F00070
F00070
F00070
F00070
F00070
F00070
F00070
F00070
F00070
F00070
7000F0
7800E0
7E03E0
3FFFC0
1FFF80
03FE00
ENDCHAR
STARTCHAR Uring
ENCODING 366
SWIDTH 889 0
DWIDTH 22 0
BBX 20 24 1 0
BITMAP
00F000
010800
010800
010800
00F000
000000
F00070
F00070
F00070
F00070
F00070
F00070
F00070
F00070
F00070
F00070
F00070
F00070
7000F0
7800E0
7E03E0
3FFFC0
1FFF80
03FE00
ENDCHAR
STARTCHAR uring
ENCODING 367
SWIDTH 889 0
DWIDTH 22 0
BBX 20 24 1 0
BITMAP
00F000
010800
010800
010800
00F000
000000
F00070
F00070
F00070
F00070
F00070
F00070
F00070
F00070
F00070
F00070
F00070
F00070
7000F0
7800E0
7E03E0
3FFFC0
1FFF80
03FE00
ENDCHAR
STARTCHAR Uhungarumlaut
ENCODING 368
SWIDTH 889 0
DWIDTH 22 0
BBX 20 22 1 0
BITMAP
00EE00
00CC00
019800
000000
F00070
F00070
F00070
F00070
F00070
F00070
F00070
F00070
F00070
F00070
F00070
F00070
7000F0
7800E0
7E03E0
3FFFC0
1FFF80
03FE00
ENDCHAR
STARTCHAR uhungarumlaut
ENCODING 369
SWIDTH 889 0
DWIDTH 22 0
BBX 20 22 1 0
BITMAP
00EE00
00CC00
019800
000000
F00070
F00070
F00070
F00070
F00070
F00070
F00070
F00070
F00070
F00070
F00070
F00070
7000F0
7800E0
7E03E0
3FFFC0
1FFF80
03FE00
ENDCHAR
STARTCHAR Uogonek
ENCODING 370
SWIDTH 889 0
DWIDTH 22 0
BBX 20 23 1 -5
BITMAP
F00070
F00070
F00070
F00070
F00070
F00070
F00070
F00070
F00070
F00070
F00070
F00070
7000F0
7800E0
7E03E0
3FFFC0
1FFF80
03FF00
003000
00C000
00C000
00F000
00F000
ENDCHAR
STARTCHAR uogonek
ENCODING 371
SWIDTH 889 0
DWIDTH 22 0
BBX 20 23 1 -5
BITMAP
F00070
F00070
F00070
F00070
F00070
F00070
F00070
F00070
F00070
F00070
F00070
F00070
7000F0
7800E0
7E03E0
3FFFC0
1FFF80
03FF00
003000
00C000
00C000
00F000
00F000
ENDCHAR
STARTCHAR Wcircumflex
ENCODING 372
SWIDTH 1268 0
DWIDTH 32 0
BBX 31 22 0 0
BITMAP
00038000
0002C000
00066000
00080000
F03C001E
783C001E
381E003C
3C1E0038
1E0F0078
1E0F0070
0F0780F0
0F0380E0
0783C1E0
0383C1C0
03C7E3C0
01C7E380
01EEF700
00EE7F00
00FC7E00
007C3E00
00783C00
00381C00
ENDCHAR
STARTCHAR wcircumflex
ENCODING 373
SWIDTH 1268 0
DWIDTH 32 0
BBX 31 22 0 0
BITMAP
00038000
0002C000
00066000
00080000
F03C001E
783C001E
381E003C
3C1E0038
1E0F0078
1E0F0070
0F0780F0
0F0380E0
0783C1E0
0383C1C0
03C7E3C0
01C7E380
01EEF700
00EE7F00
00FC7E00
007C3E00
00783C00
00381C00
ENDCHAR
STARTCHAR Ycircumflex
ENCODING 374
SWIDTH 926 0
DWIDTH 23 0
BBX 23 22 0 0
BITMAP
003800
002C00
006400
008200
F8003E
3C003C
3E0078
1F00F0
0F01E0
0783C0
03C780
01EF00
00FF00
00FE00
007C00
003800
003800
003800
003800
003800
003800
003800
ENDCHAR
STARTCHAR ycircumflex
ENCODING 375
SWIDTH 926 0
DWIDTH 23 0
BBX 23 22 0 0
BITMAP
003800
002C00
006400
008200
F8003E
3C003C
3E0078
1F00F0
0F01E0
0783C0
03C780
01EF00
00FF00
00FE00
007C00
003800
003800
003800
003800
003800
003800
003800
ENDCHAR
STARTCHAR Ydieresis
ENCODING 376
SWIDTH 926 0
DWIDTH 23 0
BBX 23 22 0 0
BITMAP
00E600
00C600
000000
000000
F8003E
3C003C
3E0078
1F00F0
0F01E0
0783C0
03C780
01EF00
00FF00
00FE00
007C00
003800
003800
003800
003800
003800
003800
003800
ENDCHAR
STARTCHAR Zacute
ENCODING 377
SWIDTH 802 0
DWIDTH 20 0
BBX 18 22 1 0
BITMAP
003800
01F800
010000
000000
FFFF80
FFFFC0
FFFFC0
000F80
001F00
003E00
007C00
00F800
01F000
03E000
07C000
0F8000
1F0000
3E0000
7C0000
FFFFC0
FFFFC0
FFFFC0
ENDCHAR
STARTCHAR zacute
ENCODING 378
SWIDTH 802 0
DWIDTH 20 0
BBX 18 22 1 0
BITMAP
003800
01F800
010000
000000
FFFF80
FFFFC0
FFFFC0
000F80
001F00
003E00
007C00
00F800
01F000
03E000
07C000
0F8000
1F0000
3E0000
7C0000
FFFFC0
FFFFC0
FFFFC0
ENDCHAR
STARTCHAR Zdotaccent
ENCODING 379
SWIDTH 802 0
DWIDTH 20 0
BBX 18 22 1 0
BITMAP
00C000
00C000
000000
000000
FFFF80
FFFFC0
FFFFC0
000F80
001F00
003E00
007C00
00F800
01F000
03E000
07C000
0F8000
1F0000
3E0000
7C0000
FFFFC0
FFFFC0
FFFFC0
ENDCHAR
STARTCHAR zdotaccent
ENCODING 380
SWIDTH 802 0
DWIDTH 20 0
BBX 18 22 1 0
BITMAP
00C000
00C000
000000
000000
FFFF80
FFFFC0
FFFFC0
000F80
001F00
003E00
007C00
00F800
01F000
03E000
07C000
0F8000
1F0000
3E0000
7C0000
FFFFC0
FFFFC0
FFFFC0
ENDCHAR
STARTCHAR Zcaron
ENCODING 381
SWIDTH 802 0
DWIDTH 20 0
BBX 18 23 1 0
BITMAP
063000
032000
016000
01C000
000000
FFFF80
FFFFC0
FFFFC0
000F80
001F00
003E00
007C00
00F800
01F000
03E000
07C000
0F8000
1F0000
3E0000
7C0000
FFFFC0
FFFFC0
FFFFC0
ENDCHAR
STARTCHAR zcaron
ENCODING 382
SWIDTH 802 0
DWIDTH 20 0
BBX 18 23 1 0
BITMAP
063000
032000
016000
01C000
000000
FFFF80
FFFFC0
FFFFC0
000F80
001F00
003E00
007C00
00F800
01F000
03E000
07C000
0F8000
1F0000
3E0000
7C0000
FFFFC0
FFFFC0
FFFFC0
ENDCHAR
STARTCHAR Scommaaccent
ENCODING 536
SWIDTH 880 0
DWIDTH 22 0
BBX 20 23 1 -5
BITMAP
1FFFE0
3FFFE0
7FFFE0
F80000
F00000
F00000
F80000
7FFF80
3FFFE0
1FFFE0
0000F0
000070
000070
000070
0000F0
7FFFE0
7FFFC0
7FFF80
000000
00F000
006000
006000
004000
ENDCHAR
STARTCHAR scommaaccent
ENCODING 537
SWIDTH 880 0
DWIDTH 22 0
BBX 20 23 1 -5
BITMAP
1FFFE0
3FFFE0
7FFFE0
F80000
F00000
F00000
F80000
7FFF80
3FFFE0
1FFFE0
0000F0
000070
000070
000070
0000F0
7FFFE0
7FFFC0
7FFF80
000000
00F000
006000
006000
004000
ENDCHAR
STARTCHAR uni021A
ENCODING 538
SWIDTH 720 0
DWIDTH 18 0
BBX 17 23 0 -5
BITMAP
FFFF80
FFFF80
FFFF80
01E000
01E000
01E000
01E000
01E000
01E000
01E000
01E000
01E000
01E000
01E000
01E000
01E000
01E000
01E000
000000
01E000
00C000
00C000
008000
ENDCHAR
STARTCHAR uni021B
ENCODING 539
SWIDTH 720 0
DWIDTH 18 0
BBX 17 23 0 -5
BITMAP
FFFF80
FFFF80
FFFF80
01E000
01E000
01E000
01E000
01E000
01E000
01E000
01E000
01E000
01E000
01E000
01E000
01E000
01E000
01E000
000000
01E000
00C000
00C000
008000
ENDCHAR
STARTCHAR circumflex
ENCODING 710
SWIDTH 379 0
DWIDTH 9 0
BBX 7 3 1 19
BITMAP
38
2C
E6
ENDCHAR
STARTCHAR caron
ENCODING 711
SWIDTH 379 0
DWIDTH 9 0
BBX 7 4 1 19
BITMAP
C6
64
2C
38
ENDCHAR
STARTCHAR breve
ENCODING 728
SWIDTH 382 0
DWIDTH 10 0
BBX 7 4 1 19
BITMAP
C6
C6
66
3C
ENDCHAR
STARTCHAR dotaccent
ENCODING 729
SWIDTH 208 0
DWIDTH 5 0
BBX 3 2 1 20
BITMAP
E0
60
ENDCHAR
STARTCHAR ring
ENCODING 730
SWIDTH 362 0
DWIDTH 9 0
BBX 7 5 1 19
BITMAP
7C
C6
82
46
7C
ENDCHAR
STARTCHAR ogonek
ENCODING 731
SWIDTH 234 0
DWIDTH 6 0
BBX 5 5 0 -5
BITMAP
18
60
40
F8
78
ENDCHAR
STARTCHAR tilde
ENCODING 732
SWIDTH 362 0
DWIDTH 9 0
BBX 7 2 1 20
BITMAP
62
9E
ENDCHAR
STARTCHAR hungarumlaut
ENCODING 733
SWIDTH 399 0
DWIDTH 10 0
BBX 8 3 1 19
BITMAP
77
66
CC
ENDCHAR
STARTCHAR commaaccent
ENCODING 806
SWIDTH 219 0
DWIDTH 5 0
BBX 3 4 1 -5
BITMAP
E0
60
40
40
ENDCHAR
STARTCHAR Wgrave
ENCODING 7808
SWIDTH 1268 0
DWIDTH 32 0
BBX 31 22 0 0
BITMAP
000E0000
000FC000
0000C000
00000000
F03C001E
783C001E
381E003C
3C1E0038
1E0F0078
1E0F0070
0F0780F0
0F0380E0
0783C1E0
0383C1C0
03C7E3C0
01C7E380
01EEF700
00EE7F00
00FC7E00
007C3E00
00783C00
00381C00
ENDCHAR
STARTCHAR wgrave
ENCODING 7809
SWIDTH 1268 0
DWIDTH 32 0
BBX 31 22 0 0
BITMAP
000E0000
000FC000
0000C000
00000000
F03C001E
783C001E
381E003C
3C1E0038
1E0F0078
1E0F0070
0F0780F0
0F0380E0
0783C1E0
0383C1C0
03C7E3C0
01C7E380
01EEF700
00EE7F00
00FC7E00
007C3E00
00783C00
00381C00
ENDCHAR
STARTCHAR Wacute
ENCODING 7810
SWIDTH 1268 0
DWIDTH 32 0
BBX 31 22 0 0
BITMAP
00007000
0007F000
00060000
00000000
F03C001E
783C001E
381E003C
3C1E0038
1E0F0078
1E0F0070
0F0780F0
0F0380E0
0783C1E0
0383C1C0
03C7E3C0
01C7E380
01EEF700
00EE7F00
00FC7E00
007C3E00
00783C00
00381C00
ENDCHAR
STARTCHAR wacute
ENCODING 7811
SWIDTH 1268 0
DWIDTH 32 0
BBX 31 22 0 0
BITMAP
00007000
0007F000
00060000
00000000
F03C001E
783C001E
381E003C
3C1E0038
1E0F0078
1E0F0070
0F0780F0
0F0380E0
0783C1E0
0383C1C0
03C7E3C0
01C7E380
01EEF700
00EE7F00
00FC7E00
007C3E00
00783C00
00381C00
ENDCHAR
STARTCHAR Wdieresis
ENCODING 7812
SWIDTH 1268 0
DWIDTH 32 0
BBX 31 22 0 0
BITMAP
000E6000
000E6000
00000000
00000000
F03C001E
783C001E
381E003C
3C1E0038
1E0F0078
1E0F0070
0F0780F0
0F0380E0
0783C1E0
0383C1C0
03C7E3C0
01C7E380
01EEF700
00EE7F00
00FC7E00
007C3E00
00783C00
00381C00
ENDCHAR
STARTCHAR wdieresis
ENCODING 7813
SWIDTH 1268 0
DWIDTH 32 0
BBX 31 22 0 0
BITMAP
000E6000
000E6000
00000000
00000000
F03C001E
783C001E
381E003C
3C1E0038
1E0F0078
1E0F0070
0F0780F0
0F0380E0
0783C1E0
0383C1C0
03C7E3C0
01C7E380
01EEF700
00EE7F00
00FC7E00
007C3E00
00783C00
00381C00
ENDCHAR
STARTCHAR Ygrave
ENCODING 7922
SWIDTH 926 0
DWIDTH 23 0
BBX 23 22 0 0
BITMAP
00E000
00FC00
000C00
000000
F8003E
3C003C
3E0078
1F00F0
0F01E0
0783C0
03C780
01EF00
00FF00
00FE00
007C00
003800
003800
003800
003800
003800
003800
003800
ENDCHAR
STARTCHAR ygrave
ENCODING 7923
SWIDTH 926 0
DWIDTH 23 0
BBX 23 22 0 0
BITMAP
00E000
00FC00
000C00
000000
F8003E
3C003C
3E0078
1F00F0
0F01E0
0783C0
03C780
01EF00
00FF00
00FE00
007C00
003800
003800
003800
003800
003800
003800
003800
ENDCHAR
STARTCHAR endash
ENCODING 8211
SWIDTH 590 0
DWIDTH 15 0
BBX 13 2 1 8
BITMAP
FFF8
FFF8
ENDCHAR
STARTCHAR emdash
ENCODING 8212
SWIDTH 866 0
DWIDTH 22 0
BBX 20 2 1 8
BITMAP
FFFFF0
FFFFF0
ENDCHAR
STARTCHAR quoteleft
ENCODING 8216
SWIDTH 259 0
DWIDTH 6 0
BBX 3 6 2 12
BITMAP
E0
E0
E0
E0
60
60
ENDCHAR
STARTCHAR quoteright
ENCODING 8217
SWIDTH 259 0
DWIDTH 6 0
BBX 3 6 2 12
BITMAP
E0
E0
C0
C0
C0
C0
ENDCHAR
STARTCHAR quotesinglbase
ENCODING 8218
SWIDTH 259 0
DWIDTH 6 0
BBX 3 6 2 -3
BITMAP
E0
E0
C0
C0
C0
C0
ENDCHAR
STARTCHAR quotedblleft
ENCODING 8220
SWIDTH 462 0
DWIDTH 12 0
BBX 8 6 2 12
BITMAP
E7
E7
E7
E3
63
63
ENDCHAR
STARTCHAR quotedblright
ENCODING 8221
SWIDTH 462 0
DWIDTH 12 0
BBX 8 6 2 12
BITMAP
E7
E7
C7
C6
C6
C6
ENDCHAR
STARTCHAR quotedblbase
ENCODING 8222
SWIDTH 462 0
DWIDTH 12 0
BBX 8 6 2 -3
BITMAP
E7
E7
C7
C6
C6
C6
ENDCHAR
STARTCHAR dagger
ENCODING 8224
SWIDTH 466 0
DWIDTH 12 0
BBX 8 18 2 0
BITMAP
18
18
18
18
FF
18
18
18
18
18
18
18
18
18
18
18
18
18
ENDCHAR
STARTCHAR daggerdbl
ENCODING 8225
SWIDTH 466 0
DWIDTH 12 0
BBX 8 18 2 0
BITMAP
18
18
18
18
FF
18
18
18
18
18
18
18
18
FF
18
18
18
18
ENDCHAR
STARTCHAR bullet
ENCODING 8226
SWIDTH 413 0
DWIDTH 10 0
BBX 7 7 2 6
BITMAP
78
FC
FE
FE
FE
FC
78
ENDCHAR
STARTCHAR ellipsis
ENCODING 8230
SWIDTH 1310 0
DWIDTH 33 0
BBX 29 3 2 0
BITMAP
E0070038
E0070038
E0070038
ENDCHAR
STARTCHAR perthousand
ENCODING 8240
SWIDTH 1314 0
DWIDTH 33 0
BBX 31 21 1 -2
BITMAP
1E006000
7F00C000
E1818000
C0838000
C0830000
C0860000
618C0000
7F180000
1E380000
00300000
0067C0F0
00CFE3FC
0198330C
01903606
03103606
06103606
0C18330C
1C0FE1FC
1807C0F0
30000000
60000000
ENDCHAR
STARTCHAR guilsinglleft
ENCODING 8249
SWIDTH 367 0
DWIDTH 9 0
BBX 7 9 1 5
BITMAP
02
06
1C
30
C0
60
38
0C
02
ENDCHAR
STARTCHAR guilsinglright
ENCODING 8250
SWIDTH 368 0
DWIDTH 9 0
BBX 7 9 1 5
BITMAP
80
C0
70
1C
06
0E
18
60
C0
ENDCHAR
STARTCHAR fraction
ENCODING 8260
SWIDTH 185 0
DWIDTH 5 0
BBX 19 21 -7 -2
BITMAP
0000E0
000180
000380
000300
000600
000C00
001C00
001800
003000
006000
00C000
01C000
018000
030000
060000
0E0000
0C0000
180000
300000
600000
E00000
ENDCHAR
STARTCHAR zerosuperior
ENCODING 8304
SWIDTH 449 0
DWIDTH 11 0
BBX 9 9 1 10
BITMAP
3E00
7F00
C180
C080
8080
C080
C180
7F00
3E00
ENDCHAR
STARTCHAR foursuperior
ENCODING 8308
SWIDTH 452 0
DWIDTH 11 0
BBX 10 9 1 10
BITMAP
C100
C100
C100
C100
C100
FFC0
7FC0
0100
0100
ENDCHAR
STARTCHAR fivesuperior
ENCODING 8309
SWIDTH 472 0
DWIDTH 12 0
BBX 10 9 1 10
BITMAP
FF80
FF80
C000
C000
FF80
00C0
00C0
FFC0
FF80
ENDCHAR
STARTCHAR sixsuperior
ENCODING 8310
SWIDTH 466 0
DWIDTH 12 0
BBX 10 9 1 10
BITMAP
3F80
7F80
C000
C000
FF80
C080
C0C0
7F80
3F80
ENDCHAR
STARTCHAR sevensuperior
ENCODING 8311
SWIDTH 408 0
DWIDTH 10 0
BBX 9 9 1 10
BITMAP
FF80
FF00
0200
0600
0C00
1800
3000
6000
C000
ENDCHAR
STARTCHAR eightsuperior
ENCODING 8312
SWIDTH 479 0
DWIDTH 12 0
BBX 10 9 1 10
BITMAP
7F80
FFC0
C0C0
C0C0
7F80
C0C0
C0C0
FFC0
7F80
ENDCHAR
STARTCHAR ninesuperior
ENCODING 8313
SWIDTH 460 0
DWIDTH 12 0
BBX 10 9 1 10
BITMAP
7F00
FF80
C180
C0C0
FFC0
00C0
0180
7F80
7F00
ENDCHAR
STARTCHAR zeroinferior
ENCODING 8320
SWIDTH 449 0
DWIDTH 11 0
BBX 9 9 1 0
BITMAP
3E00
7F00
C180
C080
8080
C080
C180
7F00
3E00
ENDCHAR
STARTCHAR oneinferior
ENCODING 8321
SWIDTH 222 0
DWIDTH 6 0
BBX 3 9 1 0
BITMAP
C0
E0
20
20
20
20
20
20
20
ENDCHAR
STARTCHAR twoinferior
ENCODING 8322
SWIDTH 442 0
DWIDTH 11 0
BBX 9 9 1 0
BITMAP
FF00
FF80
0180
0180
7F00
C000
C000
FF80
FF80
ENDCHAR
STARTCHAR threeinferior
ENCODING 8323
SWIDTH 443 0
DWIDTH 11 0
BBX 9 9 1 0
BITMAP
FF00
FF80
0180
0180
3F00
0180
0180
FF80
FF00
ENDCHAR
STARTCHAR fourinferior
ENCODING 8324
SWIDTH 452 0
DWIDTH 11 0
BBX 10 9 1 0
BITMAP
C100
C100
C100
C100
C100
FFC0
7FC0
0100
0100
ENDCHAR
STARTCHAR fiveinferior
ENCODING 8325
SWIDTH 472 0
DWIDTH 12 0
BBX 10 9 1 0
BITMAP
FF80
FF80
C000
C000
FF80
00C0
00C0
FFC0
FF80
ENDCHAR
STARTCHAR sixinferior
ENCODING 8326
SWIDTH 466 0
DWIDTH 12 0
BBX 10 9 1 0
BITMAP
3F80
7F80
C000
C000
FF80
C080
C0C0
7F80
3F80
ENDCHAR
STARTCHAR seveninferior
ENCODING 8327
SWIDTH 408 0
DWIDTH 10 0
BBX 9 9 1 0
BITMAP
FF80
FF00
0200
0600
0C00
1800
3000
6000
C000
ENDCHAR
STARTCHAR eightinferior
ENCODING 8328
SWIDTH 479 0
DWIDTH 12 0
BBX 10 9 1 0
BITMAP
7F80
FFC0
C0C0
C0C0
7F80
C0C0
C0C0
FFC0
7F80
ENDCHAR
STARTCHAR nineinferior
ENCODING 8329
SWIDTH 460 0
DWIDTH 12 0
BBX 10 9 1 0
BITMAP
7F00
FF80
C180
C0C0
FFC0
00C0
0180
7F80
7F00
ENDCHAR
STARTCHAR Euro
ENCODING 8364
SWIDTH 884 0
DWIDTH 22 0
BBX 20 18 1 0
BITMAP
01FFF0
07FFE0
0FFFE0
1F8000
1E0000
3C0000
3C0000
FFFF00
380000
380000
FFFC00
380000
3C0000
1E0000
1F0000
0FFFE0
07FFE0
01FFE0
ENDCHAR
STARTCHAR uni2117
ENCODING 8471
SWIDTH 829 0
DWIDTH 21 0
BBX 19 18 1 0
BITMAP
03F000
0E0E00
100300
200080
400080
43F840
820440
820420
820420
82F820
820020
820040
400040
400080
200080
100300
0E0C00
03F000
ENDCHAR
STARTCHAR trademark
ENCODING 8482
SWIDTH 536 0
DWIDTH 13 0
BBX 11 6 1 12
BITMAP
FE20
2660
2660
27A0
27A0
26A0
ENDCHAR
STARTCHAR onethird
ENCODING 8531
SWIDTH 951 0
DWIDTH 24 0
BBX 22 21 1 -2
BITMAP
3800E0
3C0180
0C0380
0C0300
0C0600
0C0C00
0C1C00
0C1800
0C3000
006000
00C7F8
01C7F8
01800C
030008
0601F0
0E000C
0C000C
1807FC
3007F8
600000
E00000
ENDCHAR
STARTCHAR twothirds
ENCODING 8532
SWIDTH 979 0
DWIDTH 24 0
BBX 22 21 1 -2
BITMAP
FF0030
FF8060
0180C0
018180
7F0380
C00300
C00600
FF8C00
FF9800
003800
0037F8
0067FC
00C004
01C00C
0181F8
030004
060004
0C07FC
1C07F8
180000
700000
ENDCHAR
STARTCHAR oneeighth
ENCODING 8539
SWIDTH 985 0
DWIDTH 25 0
BBX 23 21 1 -2
BITMAP
3800E0
3C0180
0C0380
0C0300
0C0600
0C0C00
0C1C00
0C1800
0C3000
006000
00C3F8
01C7FC
018404
030604
0603F8
0E0404
0C0406
1807FC
3003FC
600000
E00000
ENDCHAR
STARTCHAR threeeighths
ENCODING 8540
SWIDTH 972 0
DWIDTH 24 0
BBX 22 21 1 -2
BITMAP
FF0070
FF80E0
0180C0
018180
3F0300
018600
018600
FF8C00
FF1800
003000
0077F8
0067FC
00CC0C
01840C
0303F8
030C0C
060C04
0C07FC
1807F8
380000
700000
ENDCHAR
STARTCHAR fiveeighths
ENCODING 8541
SWIDTH 973 0
DWIDTH 24 0
BBX 22 21 1 -2
BITMAP
FF8030
FF8060
C000C0
C00180
FF8380
00C300
00C600
FFCC00
FF9800
003800
0037F8
0067FC
00CC0C
01C40C
0183F8
030C0C
060C04
0C07FC
1C07F8
180000
700000
ENDCHAR
STARTCHAR seveneighths
ENCODING 8542
SWIDTH 965 0
DWIDTH 24 0
BBX 22 21 1 -2
BITMAP
7FC0E0
7F8180
018380
030300
060600
0C0C00
181C00
301800
703000
006000
00C7F8
01CFFC
018C0C
030C0C
0607F8
0E0C0C
0C0C0C
180FFC
3007F8
600000
E00000
ENDCHAR
STARTCHAR minus
ENCODING 8722
SWIDTH 690 0
DWIDTH 17 0
BBX 14 2 2 8
BITMAP
FFFC
FFFC
ENDCHAR
STARTCHAR approxequal
ENCODING 8776
SWIDTH 691 0
DWIDTH 17 0
BBX 14 10 2 4
BITMAP
7C04
FF0C
C7FC
80F8
0000
0000
7C04
FF0C
C7FC
80F8
ENDCHAR
STARTCHAR notequal
ENCODING 8800
SWIDTH 690 0
DWIDTH 17 0
BBX 19 22 -1 -2
BITMAP
000060
0000C0
000180
000380
000300
000600
1FFF80
1FFF80
003800
003000
006000
00C000
01C000
1FFF80
1FFF80
060000
0C0000
1C0000
180000
300000
600000
E00000
ENDCHAR
STARTCHAR lessequal
ENCODING 8804
SWIDTH 690 0
DWIDTH 17 0
BBX 14 17 2 -1
BITMAP
000C
003C
01F8
07C0
1F00
F800
C000
F800
3E00
07C0
01F0
003C
000C
0000
0000
FFFC
FFFC
ENDCHAR
STARTCHAR greaterequal
ENCODING 8805
SWIDTH 690 0
DWIDTH 17 0
BBX 14 17 2 -1
BITMAP
8000
E000
7C00
1F00
03E0
00F8
001C
00F8
03E0
1F80
7C00
F000
8000
0000
0000
FFFC
FFFC
ENDCHAR
STARTCHAR .notdef
ENCODING -1
SWIDTH 430 0
DWIDTH 11 0
BBX 8 18 1 0
BITMAP
7F
81
81
81
81
81
81
81
81
81
81
81
81
81
81
81
81
7F
ENDCHAR
STARTCHAR nonmarkingreturn
ENCODING -1
SWIDTH 104 0
DWIDTH 3 0
BBX 1 1 0 0
BITMAP
00
ENDCHAR
STARTCHAR .null
ENCODING -1
SWIDTH 104 0
DWIDTH 3 0
BBX 1 1 0 0
BITMAP
00
ENDCHAR
STARTCHAR .ttfautohint
ENCODING -1
SWIDTH 104 0
DWIDTH 3 0
BBX 1 1 0 0
BITMAP
00
ENDCHAR
ENDFONT
